<?xml version="1.0" encoding="UTF-8"?>
<svg version="1.1" xmlns="http://www.w3.org/2000/svg" width="269" height="201">
<path d="M0 0 C88.77 0 177.54 0 269 0 C269 66.33 269 132.66 269 201 C180.23 201 91.46 201 0 201 C0 134.67 0 68.34 0 0 Z " fill="#DFE5FD" transform="translate(0,0)"/>
<path d="M0 0 C22.52185503 -0.02333289 45.04370808 -0.0409811 67.56557274 -0.05181217 C78.02223489 -0.0569743 88.47888954 -0.06401541 98.93554688 -0.07543945 C108.04673855 -0.08538883 117.15792481 -0.09185404 126.26912177 -0.09408849 C131.09596976 -0.09539517 135.92280221 -0.0984783 140.74964523 -0.10573006 C145.28854761 -0.11249426 149.82742798 -0.11461614 154.36633492 -0.11310768 C156.03610542 -0.11338383 157.70587662 -0.11538659 159.37564278 -0.11920547 C161.64770327 -0.12414895 163.91967967 -0.12299584 166.19174194 -0.12025452 C167.46565985 -0.12117631 168.73957775 -0.1220981 170.05209923 -0.12304783 C173 0 173 0 175 1 C176.35472233 6.33246273 176.15473929 11.80704838 176.16113281 17.2722168 C176.16609772 18.29239899 176.17106262 19.31258118 176.17617798 20.36367798 C176.19073946 23.72553183 176.197589 27.0873386 176.203125 30.44921875 C176.20887822 32.78758241 176.21463593 35.12594606 176.22039795 37.46430969 C176.23088856 42.35910257 176.23674497 47.25387911 176.24023438 52.14868164 C176.24573715 58.4304082 176.26981132 64.71191997 176.29820633 70.99357891 C176.31679 75.81902205 176.32203587 80.64441278 176.32357025 85.46988869 C176.32660331 87.78681433 176.33465368 90.10373892 176.34775543 92.4206295 C176.36473811 95.652578 176.36295551 98.88399226 176.35644531 102.1159668 C176.3656601 103.07758224 176.37487488 104.03919769 176.3843689 105.029953 C176.37601517 106.34836182 176.37601517 106.34836182 176.36749268 107.69340515 C176.36895924 108.45715297 176.3704258 109.22090078 176.3719368 110.00779247 C175.89054582 112.58627015 175.10477549 113.46400796 173 115 C170.0832943 115.2470162 167.36973233 115.32143957 164.45703125 115.265625 C162.72590927 115.26839809 160.99478885 115.272342 159.26367188 115.27734375 C156.54240143 115.26901808 153.82230618 115.25014658 151.10131836 115.20947266 C139.16553793 114.5414153 139.16553793 114.5414153 128.88671875 119.546875 C127.92126944 120.6952258 126.95805063 121.84546939 126 123 C125.34 123 124.68 123 124 123 C123.95875 123.9075 123.9175 124.815 123.875 125.75 C123 129 123 129 120.125 131.3125 C115.29058914 133.92308186 111.43123155 134.14676739 106.0625 134.1328125 C105.27374985 134.13431305 104.48499969 134.1358136 103.67234802 134.13735962 C101.11484688 134.13971328 98.55748704 134.1334773 96 134.125 C94.70511154 134.12167664 94.70511154 134.12167664 93.38406372 134.11828613 C72.83542455 134.0559194 72.83542455 134.0559194 64.4375 133.75 C63.72142578 133.73598145 63.00535156 133.72196289 62.26757812 133.70751953 C57.6743175 133.47739855 55.22858425 132.25249969 52 129 C51.4121875 127.63875 51.4121875 127.63875 50.8125 126.25 C48.04962716 121.29588318 43.86283777 117.87786586 39 115 C34.16127032 114.09218666 29.5538752 113.91163661 24.640625 114.0078125 C23.26433001 114.0253069 21.88802749 114.04221724 20.51171875 114.05859375 C18.36973891 114.08967984 16.22814199 114.12546863 14.08642578 114.17138672 C12.00027615 114.21365108 9.91458481 114.23712237 7.828125 114.2578125 C6.5896582 114.2798877 5.35119141 114.30196289 4.07519531 114.32470703 C1 114 1 114 -0.66881084 112.75445461 C-2.34552125 110.54461667 -2.37481364 109.35992371 -2.3742218 106.60401917 C-2.38123611 105.70536133 -2.38825043 104.80670349 -2.39547729 103.8808136 C-2.38783356 102.89735458 -2.38018982 101.91389557 -2.37231445 100.90063477 C-2.37596512 99.86298981 -2.37961578 98.82534485 -2.38337708 97.7562561 C-2.39149916 94.31780759 -2.37785744 90.87982791 -2.36328125 87.44140625 C-2.3627628 85.05631002 -2.3632799 82.67121336 -2.36479187 80.28611755 C-2.36470207 75.28337234 -2.35425723 70.28078801 -2.33618164 65.27807617 C-2.31350664 58.86074591 -2.31294738 52.44365112 -2.31969929 46.02629185 C-2.32303882 41.09956261 -2.31640924 36.17288718 -2.30657005 31.24616814 C-2.30271658 28.87984435 -2.30157045 26.51351458 -2.3031559 24.14718819 C-2.3035262 20.84092913 -2.29091554 17.53497333 -2.2746582 14.22875977 C-2.27713562 13.24732498 -2.27961304 12.2658902 -2.28216553 11.25471497 C-2.27508072 10.3532373 -2.26799591 9.45175964 -2.26069641 8.52296448 C-2.25761711 7.35075773 -2.25761711 7.35075773 -2.25447559 6.15487003 C-1.96898079 3.73733294 -1.20281655 2.09982817 0 0 Z " fill="#BFCFF8" transform="translate(49,38)"/>
<path d="M0 0 C22.11 0 44.22 0 67 0 C67 30.03 67 60.06 67 91 C56.11 91 45.22 91 34 91 C33.01 88.03 32.02 85.06 31 82 C30.34 81.01 29.68 80.02 29 79 C33.29 79 37.58 79 42 79 C42 78.01 42 77.02 42 76 C37.05 76 32.1 76 27 76 C27 76.66 27 77.32 27 78 C26.34773438 77.97679687 25.69546875 77.95359375 25.0234375 77.9296875 C19.91301097 77.82416247 15.79574967 77.98073698 11 80 C11.061875 78.783125 11.12375 77.56625 11.1875 76.3125 C11.17753267 69.96331113 9.66103685 64.09528305 8 58 C7.74476563 56.95328125 7.48953125 55.9065625 7.2265625 54.828125 C5.75433528 49.34409997 5.75433528 49.34409997 1.7421875 45.65234375 C-0.51375483 44.8921124 -2.64752987 44.34683855 -5 44 C-5 43.01 -5 42.02 -5 41 C-7.31 41 -9.62 41 -12 41 C-12 39.68 -12 38.36 -12 37 C-7.38 37 -2.76 37 2 37 C2 36.01 2 35.02 2 34 C-1.63 34 -5.26 34 -9 34 C-9 33.34 -9 32.68 -9 32 C-8.34 32 -7.68 32 -7 32 C-6.34 30.35 -5.68 28.7 -5 27 C-5.33 26.67 -5.66 26.34 -6 26 C-6.22528924 24.00458104 -6.44761095 22.00840136 -6.62109375 20.0078125 C-6.92253842 17.69284593 -6.92253842 17.69284593 -9 15 C-1.08 15 6.84 15 15 15 C15 14.34 15 13.68 15 13 C15 12.01 15 11.02 15 10 C9.72 9.67 4.44 9.34 -1 9 C-0.67 6.03 -0.34 3.06 0 0 Z " fill="#E5ECFB" transform="translate(153,56)"/>
<path d="M0 0 C27.72 0 55.44 0 84 0 C84 1.66666667 84 3.33333333 84 5 C70.47 5 56.94 5 43 5 C43 5.99 43 6.98 43 8 C44.12535156 7.98839844 45.25070313 7.97679687 46.41015625 7.96484375 C56.32721122 7.89538747 66.11453986 8.18350182 76 9 C76 9.33 76 9.66 76 10 C69.73 10 63.46 10 57 10 C57 10.66 57 11.32 57 12 C43.3667426 12.55353075 43.3667426 12.55353075 37 9 C37 7.68 37 6.36 37 5 C31.06 5 25.12 5 19 5 C18.67 6.32 18.34 7.64 18 9 C23.94 9 29.88 9 36 9 C35.67 9.99 35.34 10.98 35 12 C31.7 12 28.4 12 25 12 C25 12.99 25 13.98 25 15 C29.29 15 33.58 15 38 15 C38 13.68 38 12.36 38 11 C38.66 11 39.32 11 40 11 C40 12.65 40 14.3 40 16 C46.27 16 52.54 16 59 16 C59 16.66 59 17.32 59 18 C55.57426063 18.77528479 52.42760755 19.11918778 48.91796875 19.09765625 C47.98662109 19.09443359 47.05527344 19.09121094 46.09570312 19.08789062 C45.13599609 19.07951172 44.17628906 19.07113281 43.1875 19.0625 C42.20845703 19.05798828 41.22941406 19.05347656 40.22070312 19.04882812 C37.81373889 19.03708684 35.40690143 19.02066419 33 19 C33 20.32 33 21.64 33 23 C33.60062256 22.99476318 34.20124512 22.98952637 34.82006836 22.98413086 C37.52586838 22.96341986 40.23165177 22.95035875 42.9375 22.9375 C43.88302734 22.92912109 44.82855469 22.92074219 45.80273438 22.91210938 C47.15141602 22.90727539 47.15141602 22.90727539 48.52734375 22.90234375 C49.77632446 22.89448853 49.77632446 22.89448853 51.05053711 22.88647461 C53 23 53 23 54 24 C57.72224599 24.29386153 58.77786243 24.14809171 62 22 C64.48046875 22.0234375 64.48046875 22.0234375 67.1875 22.375 C68.08855469 22.48585938 68.98960938 22.59671875 69.91796875 22.7109375 C70.60503906 22.80632812 71.29210937 22.90171875 72 23 C72.33 22.34 72.66 21.68 73 21 C73.07347656 21.95712891 73.07347656 21.95712891 73.1484375 22.93359375 C73.26058594 24.17302734 73.26058594 24.17302734 73.375 25.4375 C73.47941406 26.67306641 73.47941406 26.67306641 73.5859375 27.93359375 C73.79089844 28.95646484 73.79089844 28.95646484 74 30 C74.66 30.33 75.32 30.66 76 31 C78.14707284 33.78324257 78.98556355 35.42330185 79.07421875 38.96484375 C78 42 78 42 74.5078125 43.8984375 C73.0557059 44.4160989 71.59401424 44.90747025 70.125 45.375 C69.02478516 45.76365234 69.02478516 45.76365234 67.90234375 46.16015625 C64.83737967 47.21530782 62.2599569 48 59 48 C59 48.99 59 49.98 59 51 C59.66 51 60.32 51 61 51 C60.80664062 51.67804688 60.61328125 52.35609375 60.4140625 53.0546875 C56.80767498 65.83298919 56.80767498 65.83298919 56 79 C55.47921875 78.83628906 54.9584375 78.67257813 54.421875 78.50390625 C51.3243125 77.85941341 48.41158906 77.90588411 45.25 77.9375 C43.49429688 77.95103516 43.49429688 77.95103516 41.703125 77.96484375 C40.81109375 77.97644531 39.9190625 77.98804688 39 78 C39 78.66 39 79.32 39 80 C38.38125 80.556875 37.7625 81.11375 37.125 81.6875 C34.32281315 84.39013275 34.32281315 84.39013275 33 91 C22.11 91 11.22 91 0 91 C0 60.97 0 30.94 0 0 Z " fill="#E4EBFC" transform="translate(52,56)"/>
<path d="M0 0 C15.18 0 30.36 0 46 0 C46 5.28 46 10.56 46 16 C48.58294045 14.45023573 51.16328191 12.89367689 53.6875 11.25 C58.31282201 9.50459547 62.1997134 10.21260121 67 11 C67 10.34 67 9.68 67 9 C71.95 9 76.9 9 82 9 C82 9.99 82 10.98 82 12 C78.04 12.33 74.08 12.66 70 13 C70.66 13.86625 71.32 14.7325 72 15.625 C74.19163746 19.32338822 74.69916258 20.80502454 74 25 C71.24322738 30.39867972 66.85752885 34.44622348 62 38 C61.34 38 60.68 38 60 38 C59.95875 38.9075 59.9175 39.815 59.875 40.75 C59 44 59 44 56.125 46.3125 C51.29058914 48.92308186 47.43123155 49.14676739 42.0625 49.1328125 C41.27374985 49.13431305 40.48499969 49.1358136 39.67234802 49.13735962 C37.11484688 49.13971328 34.55748704 49.1334773 32 49.125 C30.70511154 49.12167664 30.70511154 49.12167664 29.38406372 49.11828613 C8.83542455 49.0559194 8.83542455 49.0559194 0.4375 48.75 C-0.63661133 48.72897217 -0.63661133 48.72897217 -1.73242188 48.70751953 C-6.3256825 48.47739855 -8.77141575 47.25249969 -12 44 C-12.391875 43.0925 -12.78375 42.185 -13.1875 41.25 C-15.57912409 36.9615706 -18.82253148 34.73564837 -22.72265625 31.83203125 C-25.37333255 29.69966901 -26.85847507 28.10095371 -27.30078125 24.66015625 C-27.30464844 23.80292969 -27.30851562 22.94570312 -27.3125 22.0625 C-27.32925781 21.20785156 -27.34601563 20.35320312 -27.36328125 19.47265625 C-26.93012911 16.52442718 -26.04225211 15.14163177 -24 13 C-23.34 13 -22.68 13 -22 13 C-22 12.34 -22 11.68 -22 11 C-16.54678512 9.63669628 -11.26541082 8.98779517 -6.0625 11.3125 C-4 13 -4 13 -3 16 C-2.01 16.33 -1.02 16.66 0 17 C0 11.39 0 5.78 0 0 Z " fill="#7792CB" transform="translate(113,123)"/>
<path d="M0 0 C5.61 0 11.22 0 17 0 C18 2 18 2 16 9 C21.28 9.33 26.56 9.66 32 10 C32 10.99 32 11.98 32 13 C32.99 13.495 32.99 13.495 34 14 C32 16 32 16 29.66162109 16.22705078 C28.70852051 16.21657715 27.75541992 16.20610352 26.7734375 16.1953125 C25.2265625 16.18564453 25.2265625 16.18564453 23.6484375 16.17578125 C22.56820312 16.15902344 21.48796875 16.14226562 20.375 16.125 C19.28703125 16.11597656 18.1990625 16.10695313 17.078125 16.09765625 C14.38519848 16.07403409 11.69270745 16.04109556 9 16 C9.99 16.99 9.99 16.99 11 18 C11.26991906 20.68839385 11.08737357 23.29141936 11 26 C12.485 26.495 12.485 26.495 14 27 C13.34 27 12.68 27 12 27 C11.896875 27.639375 11.79375 28.27875 11.6875 28.9375 C11.460625 29.618125 11.23375 30.29875 11 31 C9.515 31.495 9.515 31.495 8 32 C8 32.66 8 33.32 8 34 C11.63 34 15.26 34 19 34 C19 34.99 19 35.98 19 37 C14.38 37 9.76 37 5 37 C5 38.32 5 39.64 5 41 C7.31 41 9.62 41 12 41 C12.33 41.99 12.66 42.98 13 44 C14.95659633 44.50217353 14.95659633 44.50217353 17.25 44.8125 C20.84677447 45.88752957 21.78475993 46.61164322 23.63671875 49.953125 C24.95324269 53.60618241 26.03462213 57.23946946 27 61 C27.25652344 61.92167969 27.51304687 62.84335938 27.77734375 63.79296875 C29.17590443 69.5426071 29.3808438 75.20936471 28 81 C27.34 81.66 26.68 82.32 26 83 C25.01 83 24.02 83 23 83 C23 77.72 23 72.44 23 67 C7.82 67 -7.36 67 -23 67 C-22.505 75.415 -22.505 75.415 -22 84 C-22.99 84.495 -22.99 84.495 -24 85 C-24.99 84.34 -25.98 83.68 -27 83 C-27 82.01 -27 81.02 -27 80 C-27.99 79.505 -27.99 79.505 -29 79 C-29.21074813 73.61889765 -28.50811079 69.06411779 -27.125 63.875 C-26.95097656 63.18535156 -26.77695313 62.49570313 -26.59765625 61.78515625 C-25.63865445 58.06991223 -24.52159487 54.5229719 -23 51 C-23.66 51 -24.32 51 -25 51 C-25 50.01 -25 49.02 -25 48 C-18.70018779 45.86902904 -12.41739187 43.75019778 -6 42 C-5.48488567 36.59129957 -6.96703327 34.37104029 -10 30 C-10.85275465 27.68069477 -11.42172787 25.40946719 -12 23 C-13.79133978 22.94608007 -15.58313899 22.90724429 -17.375 22.875 C-18.37273437 22.85179688 -19.37046875 22.82859375 -20.3984375 22.8046875 C-23.16262173 22.72783152 -23.16262173 22.72783152 -25 25 C-27.5625 25.1875 -27.5625 25.1875 -30 25 C-30.33 24.67 -30.66 24.34 -31 24 C-32.48638992 23.84344973 -33.97949127 23.74933057 -35.47265625 23.68359375 C-36.37177734 23.64169922 -37.27089844 23.59980469 -38.19726562 23.55664062 C-39.14279297 23.51732422 -40.08832031 23.47800781 -41.0625 23.4375 C-42.4865918 23.37272461 -42.4865918 23.37272461 -43.93945312 23.30664062 C-46.29281353 23.20020724 -48.64628354 23.09818992 -51 23 C-51 21.68 -51 20.36 -51 19 C-42.42 18.67 -33.84 18.34 -25 18 C-25 17.34 -25 16.68 -25 16 C-31.27 16 -37.54 16 -44 16 C-44 14.35 -44 12.7 -44 11 C-44.66 11 -45.32 11 -46 11 C-46 12.32 -46 13.64 -46 15 C-50.29 15 -54.58 15 -59 15 C-59 14.01 -59 13.02 -59 12 C-54.545 11.505 -54.545 11.505 -50 11 C-50 10.67 -50 10.34 -50 10 C-55.28 9.67 -60.56 9.34 -66 9 C-65.67 7.35 -65.34 5.7 -65 4 C-59.06 4 -53.12 4 -47 4 C-46.67 5.32 -46.34 6.64 -46 8 C-40.5132729 12.11504533 -33.58947828 11.71647645 -27 12 C-27 11.34 -27 10.68 -27 10 C-25.68 9.67 -24.36 9.34 -23 9 C-28.94 8.67 -34.88 8.34 -41 8 C-41 7.01 -41 6.02 -41 5 C-27.8 4.67 -14.6 4.34 -1 4 C-11.89 3.505 -11.89 3.505 -23 3 C-23 2.67 -23 2.34 -23 2 C-15.41 2 -7.82 2 0 2 C0 1.34 0 0.68 0 0 Z " fill="#E4EDFC" transform="translate(136,56)"/>
<path d="M0 0 C0.66 0.66 1.32 1.32 2 2 C6.69619661 3.06102674 11.34277373 3.35209795 16 2 C16 1.34 16 0.68 16 0 C17.58409994 0.11487748 19.16728963 0.24234508 20.75 0.375 C21.63171875 0.44460937 22.5134375 0.51421875 23.421875 0.5859375 C26.17012195 1.02732262 27.76368181 1.33465667 30 3 C34.97630038 13.22753448 38.70170355 25.67027543 36 37 C35.34 37.66 34.68 38.32 34 39 C33.01 39 32.02 39 31 39 C31 33.72 31 28.44 31 23 C15.82 23 0.64 23 -15 23 C-14.67 28.61 -14.34 34.22 -14 40 C-14.99 40.495 -14.99 40.495 -16 41 C-16.99 40.34 -17.98 39.68 -19 39 C-19 38.01 -19 37.02 -19 36 C-19.66 35.67 -20.32 35.34 -21 35 C-21.21074813 29.61889765 -20.50811079 25.06411779 -19.125 19.875 C-18.95097656 19.18535156 -18.77695313 18.49570313 -18.59765625 17.78515625 C-17.63865445 14.06991223 -16.52159487 10.5229719 -15 7 C-15.66 7 -16.32 7 -17 7 C-17 6.01 -17 5.02 -17 4 C-15.10751181 3.32389577 -13.2108398 2.65949561 -11.3125 2 C-10.25675781 1.62875 -9.20101562 1.2575 -8.11328125 0.875 C-5.18095186 0.05085724 -3.01618171 -0.3380659 0 0 Z " fill="#FBB604" transform="translate(128,100)"/>
<path d="M0 0 C15.18 0 30.36 0 46 0 C46 14.78461538 46 14.78461538 45.5625 20.25 C45.48128906 21.32765625 45.40007812 22.4053125 45.31640625 23.515625 C45 26 45 26 44 27 C40.90918535 27.1011692 37.84117445 27.13968558 34.75 27.1328125 C33.82155273 27.13376923 32.89310547 27.13472595 31.93652344 27.13571167 C29.96940035 27.13639355 28.00227504 27.13453872 26.03515625 27.13037109 C23.01296974 27.12502295 19.99093185 27.13031582 16.96875 27.13671875 C15.06249967 27.13605797 13.15624943 27.13477681 11.25 27.1328125 C9.88439941 27.13584885 9.88439941 27.13584885 8.49121094 27.13894653 C2.11494969 27.11494969 2.11494969 27.11494969 1 26 C0.75669626 24.08961505 0.58221695 22.17037089 0.4375 20.25 C0.35371094 19.20328125 0.26992187 18.1565625 0.18359375 17.078125 C-0.07244266 11.39084808 0 5.69303727 0 0 Z " fill="#312F32" transform="translate(113,123)"/>
<path d="M0 0 C1.875 0.5625 1.875 0.5625 4 2 C6.15541773 7.68790789 6.24424147 12.90663323 6.125 18.9375 C6.11597656 19.81212891 6.10695312 20.68675781 6.09765625 21.58789062 C6.0742957 23.72538064 6.03843247 25.86272786 6 28 C6.60328125 27.84402344 7.2065625 27.68804687 7.828125 27.52734375 C9.02695313 27.23537109 9.02695313 27.23537109 10.25 26.9375 C11.43335938 26.64166016 11.43335938 26.64166016 12.640625 26.33984375 C15.10394822 25.98502733 16.65604132 26.23122456 19 27 C16.72225767 40.252319 12.98003127 49.11308959 5 60 C4.47535156 60.75796875 3.95070312 61.5159375 3.41015625 62.296875 C2.94480469 62.85890625 2.47945312 63.4209375 2 64 C1.34 64 0.68 64 0 64 C0 64.66 0 65.32 0 66 C-3 68 -3 68 -6 68 C-7.32196396 65.35607208 -7.14164998 63.34948727 -7.16113281 60.38867188 C-7.17074036 59.21405396 -7.1803479 58.03943604 -7.19024658 56.82922363 C-7.19449646 55.55526733 -7.19874634 54.28131104 -7.203125 52.96875 C-7.20882507 51.66675659 -7.21452515 50.36476318 -7.22039795 49.02331543 C-7.23090431 46.26602792 -7.23674982 43.50876955 -7.24023438 40.75146484 C-7.24572832 37.21366629 -7.26977642 33.67625084 -7.29820633 30.13857269 C-7.32127224 26.7694718 -7.32327779 23.40042584 -7.328125 20.03125 C-7.3404718 18.7572937 -7.3528186 17.4833374 -7.36553955 16.17077637 C-7.36253845 14.99615845 -7.35953735 13.82154053 -7.35644531 12.61132812 C-7.36009094 11.5736731 -7.36373657 10.53601807 -7.36749268 9.46691895 C-7.24622009 8.65283569 -7.12494751 7.83875244 -7 7 C-6.01 6.34 -5.02 5.68 -4 5 C-3.67 4.01 -3.34 3.02 -3 2 C-2.01 1.34 -1.02 0.68 0 0 Z " fill="#F2F6FC" transform="translate(233,54)"/>
<path d="M0 0 C2.0625 1.6875 2.0625 1.6875 3.0625 4.6875 C4.3825 5.0175 5.7025 5.3475 7.0625 5.6875 C7.3925 8.6575 7.7225 11.6275 8.0625 14.6875 C17.6325 15.0175 27.2025 15.3475 37.0625 15.6875 C37.0625 16.3475 37.0625 17.0075 37.0625 17.6875 C34.0925 18.1825 34.0925 18.1825 31.0625 18.6875 C31.0625 19.3475 31.0625 20.0075 31.0625 20.6875 C27.1025 21.1825 27.1025 21.1825 23.0625 21.6875 C23.0625 22.3475 23.0625 23.0075 23.0625 23.6875 C22.12277344 23.74357422 22.12277344 23.74357422 21.1640625 23.80078125 C20.34679687 23.86652344 19.52953125 23.93226563 18.6875 24 C17.87539062 24.05800781 17.06328125 24.11601562 16.2265625 24.17578125 C13.68328662 24.51740528 13.68328662 24.51740528 12.0625 27.6875 C11.67236284 29.6771995 11.33047351 31.67769869 11.0625 33.6875 C13.0425 34.3475 15.0225 35.0075 17.0625 35.6875 C17.0625 36.0175 17.0625 36.3475 17.0625 36.6875 C14.16565842 36.79579314 11.27288981 36.87493954 8.375 36.9375 C7.55837891 36.97101563 6.74175781 37.00453125 5.90039062 37.0390625 C1.79492944 37.1055477 -0.36754917 37.03687246 -3.9453125 34.84375 C-5.9375 32.6875 -5.9375 32.6875 -7.125 29.9375 C-9.51662409 25.6490706 -12.76003148 23.42314837 -16.66015625 20.51953125 C-19.31083255 18.38716901 -20.79597507 16.78845371 -21.23828125 13.34765625 C-21.24214844 12.49042969 -21.24601562 11.63320312 -21.25 10.75 C-21.26675781 9.89535156 -21.28351563 9.04070312 -21.30078125 8.16015625 C-20.86762911 5.21192718 -19.97975211 3.82913177 -17.9375 1.6875 C-17.2775 1.6875 -16.6175 1.6875 -15.9375 1.6875 C-15.9375 1.0275 -15.9375 0.3675 -15.9375 -0.3125 C-10.48428512 -1.67580372 -5.20291082 -2.32470483 0 0 Z " fill="#6A85BC" transform="translate(106.9375,134.3125)"/>
<path d="M0 0 C0.33 0 0.66 0 1 0 C1.04898438 0.63808594 1.09796875 1.27617188 1.1484375 1.93359375 C1.22320312 2.75988281 1.29796875 3.58617188 1.375 4.4375 C1.47941406 5.67306641 1.47941406 5.67306641 1.5859375 6.93359375 C1.79089844 7.95646484 1.79089844 7.95646484 2 9 C2.66 9.33 3.32 9.66 4 10 C6.14707284 12.78324257 6.98556355 14.42330185 7.07421875 17.96484375 C6 21 6 21 2.5078125 22.8984375 C1.0557059 23.4160989 -0.40598576 23.90747025 -1.875 24.375 C-2.97521484 24.76365234 -2.97521484 24.76365234 -4.09765625 25.16015625 C-7.16262033 26.21530782 -9.7400431 27 -13 27 C-13 27.99 -13 28.98 -13 30 C-12.34 30 -11.68 30 -11 30 C-11.33 31.65 -11.66 33.3 -12 35 C-12.99 35 -13.98 35 -15 35 C-15 35.66 -15 36.32 -15 37 C-18.63 37 -22.26 37 -26 37 C-26 37.99 -26 38.98 -26 40 C-24.02 40 -22.04 40 -20 40 C-20 41.32 -20 42.64 -20 44 C-27.68931285 45.06059488 -35.24506486 45.09928082 -43 45 C-42.67 43.35 -42.34 41.7 -42 40 C-37.05 39.505 -37.05 39.505 -32 39 C-32 38.34 -32 37.68 -32 37 C-30.68 36.34 -29.36 35.68 -28 35 C-28 32.36 -28 29.72 -28 27 C-28.93972656 26.90912109 -28.93972656 26.90912109 -29.8984375 26.81640625 C-30.71570313 26.73261719 -31.53296875 26.64882812 -32.375 26.5625 C-33.59316406 26.44068359 -33.59316406 26.44068359 -34.8359375 26.31640625 C-37 26 -37 26 -39 25 C-39 24.34 -39 23.68 -39 23 C-40.98 23 -42.96 23 -45 23 C-45 21.68 -45 20.36 -45 19 C-44.01 18.67 -43.02 18.34 -42 18 C-41.67 18.99 -41.34 19.98 -41 21 C-40.34 21 -39.68 21 -39 21 C-38.34 19.68 -37.68 18.36 -37 17 C-37 18.98 -37 20.96 -37 23 C-31.39 23 -25.78 23 -20 23 C-20 21.35 -20 19.7 -20 18 C-20.99 17.67 -21.98 17.34 -23 17 C-17.72 16.67 -12.44 16.34 -7 16 C-6.67 15.01 -6.34 14.02 -6 13 C-5.34 13 -4.68 13 -4 13 C-4 10.03 -4 7.06 -4 4 C-6.97 4 -9.94 4 -13 4 C-10 1 -10 1 -7.51953125 0.92578125 C-6.62621094 1.05339844 -5.73289063 1.18101563 -4.8125 1.3125 C-3.91144531 1.43238281 -3.01039062 1.55226563 -2.08203125 1.67578125 C-1.39496094 1.78277344 -0.70789063 1.88976562 0 2 C0 1.34 0 0.68 0 0 Z " fill="#E4EDFA" transform="translate(124,77)"/>
<path d="M0 0 C2.34038284 3.15442904 1.68975668 6.09058555 1.4375 9.9375 C2.4275 10.2675 3.4175 10.5975 4.4375 10.9375 C3.7775 10.9375 3.1175 10.9375 2.4375 10.9375 C2.334375 11.576875 2.23125 12.21625 2.125 12.875 C1.898125 13.555625 1.67125 14.23625 1.4375 14.9375 C0.4475 15.2675 -0.5425 15.5975 -1.5625 15.9375 C-1.5625 16.5975 -1.5625 17.2575 -1.5625 17.9375 C2.0675 17.9375 5.6975 17.9375 9.4375 17.9375 C9.4375 18.9275 9.4375 19.9175 9.4375 20.9375 C4.8175 20.9375 0.1975 20.9375 -4.5625 20.9375 C-4.5625 22.2575 -4.5625 23.5775 -4.5625 24.9375 C-2.2525 24.9375 0.0575 24.9375 2.4375 24.9375 C2.4375 25.9275 2.4375 26.9175 2.4375 27.9375 C1.1175 27.9375 -0.2025 27.9375 -1.5625 27.9375 C-1.5625 28.5975 -1.5625 29.2575 -1.5625 29.9375 C-6.17684075 32.46794493 -10.57184517 32.15329803 -15.5625 30.9375 C-16.2225 30.2775 -16.8825 29.6175 -17.5625 28.9375 C-18.87997324 28.24001417 -20.21164193 27.56790043 -21.5625 26.9375 C-19.5825 26.6075 -17.6025 26.2775 -15.5625 25.9375 C-15.19480932 22.07674791 -15.26064541 20.37567602 -17.5 17.125 C-20.04329422 13.19445439 -20.82982697 9.61572198 -20.5625 4.9375 C-15.36065269 -2.86527097 -8.14008075 -3.37515543 0 0 Z " fill="#F6BD9D" transform="translate(145.5625,72.0625)"/>
<path d="M0 0 C0.33 0.66 0.66 1.32 1 2 C-2.9813783 3.3271261 -6.85045227 3.06915913 -11 3 C-11 4.98 -11 6.96 -11 9 C-10.34 9.33 -9.68 9.66 -9 10 C-8.67 13.63 -8.34 17.26 -8 21 C7.345 20.505 7.345 20.505 23 20 C23.495 18.515 23.495 18.515 24 17 C24.66 17 25.32 17 26 17 C26 16.01 26 15.02 26 14 C26.66 13.67 27.32 13.34 28 13 C27.01 12.01 26.02 11.02 25 10 C25.33 9.34 25.66 8.68 26 8 C26.0396713 6.33380554 26.04384447 4.66608987 26 3 C25.34 3 24.68 3 24 3 C24 3.99 24 4.98 24 6 C22.35 6 20.7 6 19 6 C19.33 4.68 19.66 3.36 20 2 C18.68 2 17.36 2 16 2 C16 1.34 16 0.68 16 0 C17.58409994 0.11487748 19.16728963 0.24234508 20.75 0.375 C21.63171875 0.44460937 22.5134375 0.51421875 23.421875 0.5859375 C26.17012195 1.02732262 27.76368181 1.33465667 30 3 C34.97630038 13.22753448 38.70170355 25.67027543 36 37 C35.34 37.66 34.68 38.32 34 39 C33.01 39 32.02 39 31 39 C31 33.72 31 28.44 31 23 C15.82 23 0.64 23 -15 23 C-14.67 28.61 -14.34 34.22 -14 40 C-14.99 40.495 -14.99 40.495 -16 41 C-16.99 40.34 -17.98 39.68 -19 39 C-19 38.01 -19 37.02 -19 36 C-19.66 35.67 -20.32 35.34 -21 35 C-21.21074813 29.61889765 -20.50811079 25.06411779 -19.125 19.875 C-18.95097656 19.18535156 -18.77695313 18.49570313 -18.59765625 17.78515625 C-17.63865445 14.06991223 -16.52159487 10.5229719 -15 7 C-15.66 7 -16.32 7 -17 7 C-17 6.01 -17 5.02 -17 4 C-15.10751181 3.32389577 -13.2108398 2.65949561 -11.3125 2 C-10.25675781 1.62875 -9.20101562 1.2575 -8.11328125 0.875 C-5.21637944 0.0608143 -2.98299377 -0.17709796 0 0 Z " fill="#F1A311" transform="translate(128,100)"/>
<path d="M0 0 C5.94 0 11.88 0 18 0 C18.33 1.32 18.66 2.64 19 4 C24.4867271 8.11504533 31.41052172 7.71647645 38 8 C38 7.34 38 6.68 38 6 C40.64 6 43.28 6 46 6 C45.67 8.31 45.34 10.62 45 13 C47.64 13.66 50.28 14.32 53 15 C53.33 14.34 53.66 13.68 54 13 C54.495 14.98 54.495 14.98 55 17 C54.34 17 53.68 17 53 17 C53 17.66 53 18.32 53 19 C52.22914062 18.97679688 51.45828125 18.95359375 50.6640625 18.9296875 C49.15972656 18.90261719 49.15972656 18.90261719 47.625 18.875 C46.62726563 18.85179688 45.62953125 18.82859375 44.6015625 18.8046875 C41.83737827 18.72783152 41.83737827 18.72783152 40 21 C37.4375 21.1875 37.4375 21.1875 35 21 C34.67 20.67 34.34 20.34 34 20 C32.51361008 19.84344973 31.02050873 19.74933057 29.52734375 19.68359375 C28.62822266 19.64169922 27.72910156 19.59980469 26.80273438 19.55664062 C25.85720703 19.51732422 24.91167969 19.47800781 23.9375 19.4375 C22.5134082 19.37272461 22.5134082 19.37272461 21.06054688 19.30664062 C18.70718647 19.20020724 16.35371646 19.09818992 14 19 C14 17.68 14 16.36 14 15 C22.58 14.67 31.16 14.34 40 14 C40 13.34 40 12.68 40 12 C33.73 12 27.46 12 21 12 C21 10.35 21 8.7 21 7 C20.34 7 19.68 7 19 7 C19 8.32 19 9.64 19 11 C14.71 11 10.42 11 6 11 C6 10.01 6 9.02 6 8 C10.455 7.505 10.455 7.505 15 7 C15 6.67 15 6.34 15 6 C9.72 5.67 4.44 5.34 -1 5 C-0.67 3.35 -0.34 1.7 0 0 Z " fill="#DDE8FA" transform="translate(71,60)"/>
<path d="M0 0 C6.27 0 12.54 0 19 0 C20 6 20 6 19 8 C18.34 8 17.68 8 17 8 C16.67 9.32 16.34 10.64 16 12 C9.565 12.495 9.565 12.495 3 13 C3 14.65 3 16.3 3 18 C-2.61 18 -8.22 18 -14 18 C-14 16.02 -14 14.04 -14 12 C-14.66 12 -15.32 12 -16 12 C-16 10.35 -16 8.7 -16 7 C-13.56242587 6.97301578 -11.12515085 6.95316901 -8.6875 6.9375 C-7.99720703 6.92912109 -7.30691406 6.92074219 -6.59570312 6.91210938 C-3.4516975 6.89692094 -1.00579981 6.99806673 2 8 C1.67 7.4225 1.34 6.845 1 6.25 C0 4 0 4 0 0 Z " fill="#D7E7FA" transform="translate(101,82)"/>
<path d="M0 0 C15.18 0 30.36 0 46 0 C46 13 46 13 44 16 C43.97263293 14.60427948 43.95344011 13.20839779 43.9375 11.8125 C43.92589844 11.03519531 43.91429687 10.25789062 43.90234375 9.45703125 C44 7 44 7 45 2 C35.1 2.66 25.2 3.32 15 4 C15 5.98 15 7.96 15 10 C14.67 10.33 14.34 10.66 14 11 C13.8453125 12.6396875 13.8453125 12.6396875 13.6875 14.3125 C12.93944204 18.32481087 12.19881568 19.57665479 9 22 C8.34 22 7.68 22 7 22 C7 22.66 7 23.32 7 24 C6.01 24 5.02 24 4 24 C3.89748328 18.87416389 3.96409801 14.05002222 5 9 C4.34 9 3.68 9 3 9 C3 11.64 3 14.28 3 17 C2.34 17 1.68 17 1 17 C0 13 0 13 0 0 Z " fill="#392E1F" transform="translate(113,123)"/>
<path d="M0 0 C0.66 0 1.32 0 2 0 C1.67 4.95 1.34 9.9 1 15 C1.99 15 2.98 15 4 15 C4 14.34 4 13.68 4 13 C5.22795623 11.86829687 6.50851257 10.79318994 7.8125 9.75 C11.27826068 6.82403921 13.32374125 4.29541305 15 0 C23.57142857 -0.28571429 23.57142857 -0.28571429 27 2 C27.125 4.375 27.125 4.375 27 7 C25 9 25 9 22.8359375 9.1953125 C21.61777344 9.16050781 21.61777344 9.16050781 20.375 9.125 C19.55773437 9.10695312 18.74046875 9.08890625 17.8984375 9.0703125 C17.27195313 9.04710937 16.64546875 9.02390625 16 9 C16 8.34 16 7.68 16 7 C15.01 7 14.02 7 13 7 C13 9.31 13 11.62 13 14 C18.01608525 15.0176403 22.78608306 15.11856434 27.875 15.0625 C28.65875 15.05798828 29.4425 15.05347656 30.25 15.04882812 C32.16670014 15.03714093 34.08336048 15.01920908 36 15 C36.33 14.34 36.66 13.68 37 13 C39.5625 12.375 39.5625 12.375 42 12 C42.042721 13.66611905 42.04063832 15.33382885 42 17 C40.05136075 18.94863925 37.1019128 18.1291874 34.50878906 18.13894653 C33.59838867 18.1369223 32.68798828 18.13489807 31.75 18.1328125 C30.82155273 18.13376923 29.89310547 18.13472595 28.93652344 18.13571167 C26.96940035 18.13639355 25.00227504 18.13453872 23.03515625 18.13037109 C20.01296974 18.12502295 16.99093185 18.13031582 13.96875 18.13671875 C12.06249967 18.13605797 10.15624943 18.13477681 8.25 18.1328125 C6.88439941 18.13584885 6.88439941 18.13584885 5.49121094 18.13894653 C-0.88505031 18.11494969 -0.88505031 18.11494969 -2 17 C-2.07179964 15.48071962 -2.08392007 13.95832518 -2.0625 12.4375 C-2.05347656 11.61121094 -2.04445313 10.78492188 -2.03515625 9.93359375 C-2.02355469 9.29550781 -2.01195313 8.65742188 -2 8 C-1.34 8 -0.68 8 0 8 C0 5.36 0 2.72 0 0 Z " fill="#282E3B" transform="translate(116,132)"/>
<path d="M0 0 C0.66773437 0.48210937 1.33546875 0.96421875 2.0234375 1.4609375 C5.61511699 3.31805262 8.67083529 3.52383575 12.625 3.625 C13.40464111 3.65585693 14.18428223 3.68671387 14.98754883 3.71850586 C17.99132833 3.83016949 20.99533888 3.91517555 24 4 C25.43767408 4.04373748 26.87533612 4.08787208 28.31298828 4.13232422 C38.54132866 4.44739686 48.77029367 4.73321269 59 5 C59.495 5.99 59.495 5.99 60 7 C53.34152515 7.86080436 46.86579564 8.13893874 40.15625 8.09375 C38.60593079 8.08837219 38.60593079 8.08837219 37.02429199 8.08288574 C24.51418663 8.01977187 12.00720312 7.76203224 -0.5 7.5 C-2.89582889 7.4516027 -5.29166223 7.40342465 -7.6875 7.35546875 C-13.45838668 7.23949254 -19.22921373 7.12086434 -25 7 C-25.33 6.01 -25.66 5.02 -26 4 C-22.57426063 3.22471521 -19.42760755 2.88081222 -15.91796875 2.90234375 C-14.98662109 2.90556641 -14.05527344 2.90878906 -13.09570312 2.91210938 C-12.13599609 2.92048828 -11.17628906 2.92886719 -10.1875 2.9375 C-9.20845703 2.94201172 -8.22941406 2.94652344 -7.22070312 2.95117188 C-4.81373889 2.96291316 -2.40690143 2.97933581 0 3 C0 2.01 0 1.02 0 0 Z " fill="#BBC8E6" transform="translate(101,167)"/>
<path d="M0 0 C2.3865192 3.47130066 1.07318785 6.98541984 0.375 11 C-5.235 10.67 -10.845 10.34 -16.625 10 C-16.955 10.99 -17.285 11.98 -17.625 13 C-18.285 13 -18.945 13 -19.625 13 C-20.875 5.375 -20.875 5.375 -18.625 2 C-12.25848661 -2.67743841 -7.32624593 -2.79095083 0 0 Z " fill="#2E2D2E" transform="translate(145.625,72)"/>
<path d="M0 0 C5.94 0 11.88 0 18 0 C18.33 1.32 18.66 2.64 19 4 C23.66976595 7.13951957 27.93407334 7.51531878 33.375 7.6875 C34.11105469 7.72166016 34.84710938 7.75582031 35.60546875 7.79101562 C37.40313853 7.87272789 39.20154046 7.93805781 41 8 C41 8.99 41 9.98 41 11 C34.4 11 27.8 11 21 11 C21 9.68 21 8.36 21 7 C20.34 7 19.68 7 19 7 C19 8.32 19 9.64 19 11 C14.71 11 10.42 11 6 11 C6 10.01 6 9.02 6 8 C10.455 7.505 10.455 7.505 15 7 C15 6.67 15 6.34 15 6 C9.72 5.67 4.44 5.34 -1 5 C-0.67 3.35 -0.34 1.7 0 0 Z " fill="#D6E4F7" transform="translate(71,60)"/>
<path d="M0 0 C5.00533828 0.03033538 9.13686246 0.29035656 13.828125 2.265625 C13.828125 4.575625 13.828125 6.885625 13.828125 9.265625 C15.808125 9.925625 17.788125 10.585625 19.828125 11.265625 C19.828125 11.595625 19.828125 11.925625 19.828125 12.265625 C16.93128342 12.37391814 14.03851481 12.45306454 11.140625 12.515625 C10.32400391 12.54914063 9.50738281 12.58265625 8.66601562 12.6171875 C4.5714 12.68349706 2.38824825 12.60285683 -1.1953125 10.4453125 C-3.67003916 7.7162661 -4.09243623 5.9198085 -4.171875 2.265625 C-2.171875 0.265625 -2.171875 0.265625 0 0 Z " fill="#33312C" transform="translate(104.171875,158.734375)"/>
<path d="M0 0 C6.93 0 13.86 0 21 0 C21.66 3.3 22.32 6.6 23 10 C21.68 9.67 20.36 9.34 19 9 C16.75092848 8.93209325 14.49998395 8.91500016 12.25 8.9375 C10.49429688 8.95103516 10.49429688 8.95103516 8.703125 8.96484375 C7.81109375 8.97644531 6.9190625 8.98804688 6 9 C5.67 9.66 5.34 10.32 5 11 C3.35 10.67 1.7 10.34 0 10 C0 8.68 0 7.36 0 6 C1.65 6 3.3 6 5 6 C5 5.34 5 4.68 5 4 C3.35 4 1.7 4 0 4 C0 2.68 0 1.36 0 0 Z " fill="#E9ECED" transform="translate(85,125)"/>
<path d="M0 0 C0.33 0.66 0.66 1.32 1 2 C-2.9813783 3.3271261 -6.85045227 3.06915913 -11 3 C-11 4.98 -11 6.96 -11 9 C-10.34 9.33 -9.68 9.66 -9 10 C-8.5859375 12.50390625 -8.5859375 12.50390625 -8.375 15.5625 C-8.30023438 16.57441406 -8.22546875 17.58632812 -8.1484375 18.62890625 C-8.07496094 19.80259766 -8.07496094 19.80259766 -8 21 C-9.32 20.67 -10.64 20.34 -12 20 C-12 19.01 -12 18.02 -12 17 C-12.99 16.67 -13.98 16.34 -15 16 C-18.37532306 25.49561725 -18.37532306 25.49561725 -17 35 C-16.01 35.33 -15.02 35.66 -14 36 C-14.495 38.475 -14.495 38.475 -15 41 C-16.32 40.34 -17.64 39.68 -19 39 C-19 38.01 -19 37.02 -19 36 C-19.66 35.67 -20.32 35.34 -21 35 C-21.21074813 29.61889765 -20.50811079 25.06411779 -19.125 19.875 C-18.95097656 19.18535156 -18.77695313 18.49570313 -18.59765625 17.78515625 C-17.63865445 14.06991223 -16.52159487 10.5229719 -15 7 C-15.66 7 -16.32 7 -17 7 C-17 6.01 -17 5.02 -17 4 C-15.10751181 3.32389577 -13.2108398 2.65949561 -11.3125 2 C-10.25675781 1.62875 -9.20101562 1.2575 -8.11328125 0.875 C-5.21637944 0.0608143 -2.98299377 -0.17709796 0 0 Z " fill="#EFA50C" transform="translate(128,100)"/>
<path d="M0 0 C0.33 0 0.66 0 1 0 C0.67 2.31 0.34 4.62 0 7 C2.93443402 6.73343428 2.93443402 6.73343428 6 6 C6.66 5.01 7.32 4.02 8 3 C8 4.32 8 5.64 8 7 C9.65 7 11.3 7 13 7 C12.01 7.495 12.01 7.495 11 8 C11 8.66 11 9.32 11 10 C7.37 10 3.74 10 0 10 C0 10.99 0 11.98 0 13 C1.98 13 3.96 13 6 13 C6 14.32 6 15.64 6 17 C-1.68931285 18.06059488 -9.24506486 18.09928082 -17 18 C-16.67 16.35 -16.34 14.7 -16 13 C-12.7 12.67 -9.4 12.34 -6 12 C-6 11.34 -6 10.68 -6 10 C-5.38125 9.835 -4.7625 9.67 -4.125 9.5 C-0.72243051 7.09818625 -0.77387974 3.99837866 0 0 Z " fill="#ECF0F7" transform="translate(98,104)"/>
<path d="M0 0 C0.99 0.495 0.99 0.495 2 1 C4.31559369 1.06202318 6.63302074 1.05971275 8.94921875 1.02734375 C10.36913809 1.01468632 11.78906011 1.0023262 13.20898438 0.99023438 C15.44271218 0.96552662 17.67629995 0.93766856 19.90991211 0.90405273 C22.06885602 0.87359102 24.22762659 0.85598845 26.38671875 0.83984375 C27.67795654 0.82300537 28.96919434 0.80616699 30.29956055 0.78881836 C35.84892201 1.10551676 39.75495747 1.8874088 43.9375 5.625 C44.9584375 6.800625 44.9584375 6.800625 46 8 C40.95612681 10.17408327 37.11559149 9.91603828 31.875 8.8125 C31.17246094 8.68552734 30.46992187 8.55855469 29.74609375 8.42773438 C26.78948611 7.84367861 24.4567882 7.36212903 22.06787109 5.46826172 C19.60896462 3.72235103 18.22050938 3.58399069 15.234375 3.48828125 C14.34492187 3.45283203 13.45546875 3.41738281 12.5390625 3.38085938 C11.61867188 3.35830078 10.69828125 3.33574219 9.75 3.3125 C8.81414063 3.27833984 7.87828125 3.24417969 6.9140625 3.20898438 C4.60949467 3.12667838 2.30529881 3.0574737 0 3 C0 2.01 0 1.02 0 0 Z " fill="#D5E1FA" transform="translate(48,150)"/>
<path d="M0 0 C8.57142857 -0.28571429 8.57142857 -0.28571429 12 2 C12.125 4.375 12.125 4.375 12 7 C10 9 10 9 7.8359375 9.1953125 C6.61777344 9.16050781 6.61777344 9.16050781 5.375 9.125 C4.55773437 9.10695312 3.74046875 9.08890625 2.8984375 9.0703125 C2.27195313 9.04710937 1.64546875 9.02390625 1 9 C1 8.34 1 7.68 1 7 C0.01 7 -0.98 7 -2 7 C-2.0825 7.5775 -2.165 8.155 -2.25 8.75 C-3.23506825 11.70520475 -4.58102904 13.06482323 -7 15 C-8.32 15 -9.64 15 -11 15 C-11 14.34 -11 13.68 -11 13 C-9.77204377 11.86829687 -8.49148743 10.79318994 -7.1875 9.75 C-3.72173932 6.82403921 -1.67625875 4.29541305 0 0 Z " fill="#4B4B4D" transform="translate(131,132)"/>
<path d="M0 0 C0.495 0.165 0.99 0.33 1.5 0.5 C5.03444089 1.20688818 8.39690701 1.06005155 12 1 C9.03312999 2.64826111 6.34373475 3.44271087 3 4 C3.33 4.53625 3.66 5.0725 4 5.625 C5.22699204 8.5391061 5.14233286 10.86867708 5 14 C5.78375 14.0825 6.5675 14.165 7.375 14.25 C8.24125 14.4975 9.1075 14.745 10 15 C10.69937532 16.31647119 11.36729133 17.65022151 12 19 C14.05000871 19.80528889 14.05000871 19.80528889 16 20 C11.38565925 22.53044493 6.99065483 22.21579803 2 21 C1.34 20.34 0.68 19.68 0 19 C-1.31747324 18.30251417 -2.64914193 17.63040043 -4 17 C-2.02 16.67 -0.04 16.34 2 16 C2.50423019 10.70558305 1.18923033 8.18586481 -2 4 C-1.34 3.67 -0.68 3.34 0 3 C0 2.01 0 1.02 0 0 Z " fill="#FAC79E" transform="translate(128,82)"/>
<path d="M0 0 C0.33 0 0.66 0 1 0 C0.96744792 2.01822917 0.93489583 4.03645833 0.90234375 6.0546875 C0.87350758 8.08185404 0.87350758 8.08185404 2 10 C4.52733235 10.65555119 4.52733235 10.65555119 7 11 C7 11.33 7 11.66 7 12 C5.35 12 3.7 12 2 12 C2.33 13.051875 2.66 14.10375 3 15.1875 C3.83966782 18.38873357 4.19750904 20.7411008 4 24 C2.84337707 21.76937006 1.98009733 19.90933227 1.4375 17.4375 C-0.63705037 13.91978416 -3.2944803 13.56734868 -7.1015625 12.48046875 C-7.72804687 12.32191406 -8.35453125 12.16335937 -9 12 C-9 11.01 -9 10.02 -9 9 C-11.31 9 -13.62 9 -16 9 C-16 7.68 -16 6.36 -16 5 C-11.38 5 -6.76 5 -2 5 C-2.33 5.66 -2.66 6.32 -3 7 C-2.01 7 -1.02 7 0 7 C0 4.69 0 2.38 0 0 Z " fill="#DFE7F6" transform="translate(157,88)"/>
<path d="M0 0 C0.33 0.99 0.66 1.98 1 3 C3.01508358 3.73323796 3.01508358 3.73323796 5 4 C5 4.99 5 5.98 5 7 C25.295 7.495 25.295 7.495 46 8 C46 8.33 46 8.66 46 9 C31.48 9.33 16.96 9.66 2 10 C1.67 14.29 1.34 18.58 1 23 C0.01 22.67 -0.98 22.34 -2 22 C-4.97499116 16.05001769 -1.51734609 6.17054076 0 0 Z " fill="#EEB322" transform="translate(112,113)"/>
<path d="M0 0 C13.53 0 27.06 0 41 0 C41 0.99 41 1.98 41 3 C27.47 3 13.94 3 0 3 C0 2.01 0 1.02 0 0 Z " fill="#C0CFF0" transform="translate(95,61)"/>
<path d="M0 0 C4.26943207 4.26943207 4.96316325 12.1598869 5.0390625 18.01171875 C4.48873604 24.51126396 4.48873604 24.51126396 2 27 C1.01 27 0.02 27 -1 27 C-1 21.72 -1 16.44 -1 11 C-15.85 11 -30.7 11 -46 11 C-46 10.67 -46 10.34 -46 10 C-30.82 10 -15.64 10 0 10 C0 14.29 0 18.58 0 23 C0.66 23 1.32 23 2 23 C1.30998457 11.47126895 1.30998457 11.47126895 0 0 Z " fill="#D6A940" transform="translate(160,112)"/>
<path d="M0 0 C0.66 0.66 1.32 1.32 2 2 C-2.82431428 5.49346896 -8.31133041 6.59526723 -14 8 C-14.33 9.98 -14.66 11.96 -15 14 C-15.66 14 -16.32 14 -17 14 C-18.25 6.375 -18.25 6.375 -16 3 C-10.60417139 -0.96428225 -6.5308664 -1.88876381 0 0 Z " fill="#524F57" transform="translate(143,71)"/>
<path d="M0 0 C1.95780089 0.04566299 3.91704118 0.03829748 5.875 0 C12.62886987 -0.06077723 19.27760856 0.38387247 26 1 C25.67 1.66 25.34 2.32 25 3 C22.25390625 3.4140625 22.25390625 3.4140625 18.5625 3.625 C17.90886475 3.66294678 17.25522949 3.70089355 16.58178711 3.73999023 C8.39360088 4.16346744 0.19583414 4.08449314 -8 4 C-8 3.01 -8 2.02 -8 1 C-3.375 -1.125 -3.375 -1.125 0 0 Z " fill="#C2CEF0" transform="translate(171,170)"/>
<path d="M0 0 C1.3293457 0.00483398 1.3293457 0.00483398 2.68554688 0.00976562 C4.05356445 0.02233398 4.05356445 0.02233398 5.44921875 0.03515625 C6.38056641 0.03966797 7.31191406 0.04417969 8.27148438 0.04882812 C10.55996248 0.06056391 12.84830683 0.07698262 15.13671875 0.09765625 C15.46671875 1.41765625 15.79671875 2.73765625 16.13671875 4.09765625 C7.88671875 4.09765625 -0.36328125 4.09765625 -8.86328125 4.09765625 C-9.19328125 3.10765625 -9.52328125 2.11765625 -9.86328125 1.09765625 C-6.51236354 0.34402573 -3.43218313 -0.02214312 0 0 Z " fill="#C1CFF1" transform="translate(84.86328125,169.90234375)"/>
<path d="M0 0 C0.66 0 1.32 0 2 0 C2 1.65 2 3.3 2 5 C8.27 5 14.54 5 21 5 C21 5.66 21 6.32 21 7 C17.50007304 7.79706768 14.2857769 8.11863027 10.69921875 8.09765625 C9.72275391 8.09443359 8.74628906 8.09121094 7.74023438 8.08789062 C6.73283203 8.07951172 5.72542969 8.07113281 4.6875 8.0625 C3.66076172 8.05798828 2.63402344 8.05347656 1.57617188 8.04882812 C-0.94927882 8.03708184 -3.47460905 8.02065565 -6 8 C-6.33 8.99 -6.66 9.98 -7 11 C-7 10.01 -7 9.02 -7 8 C-7.99 7.67 -8.98 7.34 -10 7 C-10 6.34 -10 5.68 -10 5 C-6.7 5 -3.4 5 0 5 C0 3.35 0 1.7 0 0 Z " fill="#E5F3FD" transform="translate(90,67)"/>
<path d="M0 0 C2.9375 1.3125 2.9375 1.3125 5 3 C5.33 3.99 5.66 4.98 6 6 C8.01508358 6.73323796 8.01508358 6.73323796 10 7 C10 7.99 10 8.98 10 10 C7.0625 9.1875 7.0625 9.1875 4 8 C3.67 7.01 3.34 6.02 3 5 C1.68 5 0.36 5 -1 5 C-1.33 5.66 -1.66 6.32 -2 7 C-1.34 7 -0.68 7 0 7 C-0.33 8.32 -0.66 9.64 -1 11 C-1 10.34 -1 9.68 -1 9 C-2.32 9.33 -3.64 9.66 -5 10 C-7.62386487 6.93882432 -8 6.26826873 -8 2 C-8.66 1.67 -9.32 1.34 -10 1 C-6.80839819 -0.5958009 -3.47279968 -0.37921376 0 0 Z " fill="#7085B0" transform="translate(104,133)"/>
<path d="M0 0 C4.29 0 8.58 0 13 0 C13 0.99 13 1.98 13 3 C9.37 3.66 5.74 4.32 2 5 C3.65 5.33 5.3 5.66 7 6 C7 7.32 7 8.64 7 10 C4.69 10 2.38 10 0 10 C0 8.68 0 7.36 0 6 C-1.32 5.67 -2.64 5.34 -4 5 C-3.34 5 -2.68 5 -2 5 C-2 4.34 -2 3.68 -2 3 C-2.66 2.67 -3.32 2.34 -4 2 C-2.68 2 -1.36 2 0 2 C0 1.34 0 0.68 0 0 Z " fill="#D6E3F9" transform="translate(84,104)"/>
<path d="M0 0 C2.97 0 5.94 0 9 0 C9 0.99 9 1.98 9 3 C9.66 3.33 10.32 3.66 11 4 C11 5.65 11 7.3 11 9 C9.35 9 7.7 9 6 9 C5.67 9.66 5.34 10.32 5 11 C3.35 10.67 1.7 10.34 0 10 C0 8.68 0 7.36 0 6 C1.65 6 3.3 6 5 6 C5 5.34 5 4.68 5 4 C3.35 4 1.7 4 0 4 C0 2.68 0 1.36 0 0 Z " fill="#DDE7FB" transform="translate(85,125)"/>
<path d="M0 0 C1.58409994 0.11487748 3.16728963 0.24234508 4.75 0.375 C6.07257813 0.47941406 6.07257813 0.47941406 7.421875 0.5859375 C10.03022242 1.0048539 11.77207732 1.59760224 14 3 C16.05278746 6.69501742 16.19417201 9.82530183 16 14 C15.67 13.34 15.34 12.68 15 12 C14.01 12.33 13.02 12.66 12 13 C11.01 12.01 10.02 11.02 9 10 C9.33 9.34 9.66 8.68 10 8 C10.0396713 6.33380554 10.04384447 4.66608987 10 3 C9.34 3 8.68 3 8 3 C8 3.99 8 4.98 8 6 C6.35 6 4.7 6 3 6 C3.33 4.68 3.66 3.36 4 2 C2.68 2 1.36 2 0 2 C0 1.34 0 0.68 0 0 Z " fill="#E8AC28" transform="translate(144,100)"/>
<path d="M0 0 C4.45827926 -0.0578304 8.9164628 -0.09353855 13.375 -0.125 C15.28152344 -0.15013672 15.28152344 -0.15013672 17.2265625 -0.17578125 C18.43828125 -0.18222656 19.65 -0.18867187 20.8984375 -0.1953125 C22.01911621 -0.20578613 23.13979492 -0.21625977 24.29443359 -0.22705078 C27 0 27 0 29 2 C26.35893402 4.64106598 25.12217546 4.25746688 21.44140625 4.265625 C20.33345703 4.26820312 19.22550781 4.27078125 18.08398438 4.2734375 C16.92189453 4.26570313 15.75980469 4.25796875 14.5625 4.25 C13.40427734 4.25773437 12.24605469 4.26546875 11.05273438 4.2734375 C9.94349609 4.27085938 8.83425781 4.26828125 7.69140625 4.265625 C6.16302124 4.26224121 6.16302124 4.26224121 4.60375977 4.25878906 C2 4 2 4 -1 2 C-0.67 1.34 -0.34 0.68 0 0 Z " fill="#C4D1ED" transform="translate(141,68)"/>
<path d="M0 0 C9.24 0 18.48 0 28 0 C28 0.99 28 1.98 28 3 C18.76 3 9.52 3 0 3 C0 2.01 0 1.02 0 0 Z " fill="#90A6DA" transform="translate(153,61)"/>
<path d="M0 0 C0.33 0 0.66 0 1 0 C1 1.98 1 3.96 1 6 C1.99 6.33 2.98 6.66 4 7 C3.34 7 2.68 7 2 7 C1.896875 7.639375 1.79375 8.27875 1.6875 8.9375 C1.460625 9.618125 1.23375 10.29875 1 11 C0.01 11.33 -0.98 11.66 -2 12 C-2 12.66 -2 13.32 -2 14 C1.63 14 5.26 14 9 14 C9 14.99 9 15.98 9 17 C4.38 17 -0.24 17 -5 17 C-5.33 17.99 -5.66 18.98 -6 20 C-6 18.02 -6 16.04 -6 14 C-5.01 13.67 -4.02 13.34 -3 13 C-3 10.69 -3 8.38 -3 6 C-2.01 6.33 -1.02 6.66 0 7 C0 4.69 0 2.38 0 0 Z " fill="#EAC7C0" transform="translate(146,76)"/>
<path d="M0 0 C2.98095703 -0.34057617 2.98095703 -0.34057617 6.7578125 -0.29296875 C7.42086395 -0.28872391 8.08391541 -0.28447906 8.76705933 -0.28010559 C10.88678441 -0.26329971 13.00556188 -0.22564701 15.125 -0.1875 C16.56118419 -0.17245549 17.99738328 -0.15876668 19.43359375 -0.14648438 C22.95603764 -0.1133909 26.47792636 -0.0615968 30 0 C30.495 0.99 30.495 0.99 31 2 C23.77648171 2.96465491 16.71937932 3.11956114 9.4375 3.0625 C8.33341797 3.05798828 7.22933594 3.05347656 6.09179688 3.04882812 C3.394473 3.0371514 0.69726653 3.02077525 -2 3 C-1.34 2.01 -0.68 1.02 0 0 Z " fill="#C2D2F4" transform="translate(130,172)"/>
<path d="M0 0 C8.91 0 17.82 0 27 0 C27 0.99 27 1.98 27 3 C18.09 3 9.18 3 0 3 C0 2.01 0 1.02 0 0 Z " fill="#C0CDED" transform="translate(184,97)"/>
<path d="M0 0 C2.31 0.33 4.62 0.66 7 1 C7.33 1.99 7.66 2.98 8 4 C6.68 4.99 5.36 5.98 4 7 C6.64 7.33 9.28 7.66 12 8 C12 8.33 12 8.66 12 9 C8.7 9 5.4 9 2 9 C2 9.99 2 10.98 2 12 C-1.9152229 10.6949257 -1.64866827 10.52699759 -4 7 C-3.34 7 -2.68 7 -2 7 C-2 5.35 -2 3.7 -2 2 C-1.01 2.33 -0.02 2.66 1 3 C0.67 2.01 0.34 1.02 0 0 Z " fill="#EEF4FC" transform="translate(171,101)"/>
<path d="M0 0 C-0.33 1.32 -0.66 2.64 -1 4 C-4.95831809 4.02892857 -8.91660917 4.04677427 -12.875 4.0625 C-14.56689453 4.07506836 -14.56689453 4.07506836 -16.29296875 4.08789062 C-17.36933594 4.09111328 -18.44570312 4.09433594 -19.5546875 4.09765625 C-20.54968262 4.10289307 -21.54467773 4.10812988 -22.56982422 4.11352539 C-25 4 -25 4 -27 3 C-27 2.34 -27 1.68 -27 1 C-22.87502594 0.83268714 -18.75001667 0.66625884 -14.625 0.5 C-13.449375 0.45230469 -12.27375 0.40460938 -11.0625 0.35546875 C-9.94101563 0.31035156 -8.81953125 0.26523438 -7.6640625 0.21875 C-6.62717285 0.17685547 -5.5902832 0.13496094 -4.52197266 0.09179688 C-3.01533561 0.03695704 -1.50763477 0 0 0 Z " fill="#F8FBFE" transform="translate(202,82)"/>
<path d="M0 0 C2.0625 1.625 2.0625 1.625 4 4 C3.62109375 7.1484375 3.62109375 7.1484375 3 10 C0.70967689 10.83719383 -1.58210957 11.6698929 -3.875 12.5 C-4.52597656 12.73847656 -5.17695312 12.97695312 -5.84765625 13.22265625 C-10.7734375 15 -10.7734375 15 -13 15 C-12.67 13.68 -12.34 12.36 -12 11 C-10.9275 10.87625 -9.855 10.7525 -8.75 10.625 C-5.55508956 10.09251493 -3.76560241 9.48157272 -1 8 C-0.01 8 0.98 8 2 8 C2 7.34 2 6.68 2 6 C0.35 5.67 -1.3 5.34 -3 5 C-3 3.68 -3 2.36 -3 1 C-2.01 0.67 -1.02 0.34 0 0 Z " fill="#F7F2EE" transform="translate(127,88)"/>
<path d="M0 0 C6.27 0 12.54 0 19 0 C19 1.32 19 2.64 19 4 C12.73 4 6.46 4 0 4 C0 2.68 0 1.36 0 0 Z " fill="#CBD2F0" transform="translate(160,89)"/>
<path d="M0 0 C6.93 0.495 6.93 0.495 14 1 C15 5 15 5 14 8 C13.01 8.495 13.01 8.495 12 9 C12 10.98 12 12.96 12 15 C14.31 15.33 16.62 15.66 19 16 C19 16.99 19 17.98 19 19 C16.03 18.67 13.06 18.34 10 18 C8.57142857 8.42857143 8.57142857 8.42857143 11 4 C7.7 3.67 4.4 3.34 1 3 C0.67 2.01 0.34 1.02 0 0 Z " fill="#D7B1A5" transform="translate(129,81)"/>
<path d="M0 0 C6.27 0 12.54 0 19 0 C19 1.32 19 2.64 19 4 C12.73 4 6.46 4 0 4 C0 2.68 0 1.36 0 0 Z " fill="#A2AFDF" transform="translate(101,82)"/>
<path d="M0 0 C6.27 0 12.54 0 19 0 C19 1.32 19 2.64 19 4 C12.73 4 6.46 4 0 4 C0 2.68 0 1.36 0 0 Z " fill="#C6D3EC" transform="translate(172,75)"/>
<path d="M0 0 C6.27 0 12.54 0 19 0 C19 1.32 19 2.64 19 4 C12.73 4 6.46 4 0 4 C0 2.68 0 1.36 0 0 Z " fill="#9FAEDA" transform="translate(85,75)"/>
<path d="M0 0 C3.3 0 6.6 0 10 0 C10 1.32 10 2.64 10 4 C8.02 4.99 6.04 5.98 4 7 C5.32 7.66 6.64 8.32 8 9 C3.05 10.485 3.05 10.485 -2 12 C-1 7 -1 7 0 4 C0 2.68 0 1.36 0 0 Z " fill="#D3DAEC" transform="translate(166,124)"/>
<path d="M0 0 C1.32 0 2.64 0 4 0 C4 0.66 4 1.32 4 2 C4.66 2 5.32 2 6 2 C6 1.34 6 0.68 6 0 C6.66 0 7.32 0 8 0 C8 0.66 8 1.32 8 2 C9.32 2 10.64 2 12 2 C12 2.99 12 3.98 12 5 C9.69 5 7.38 5 5 5 C5.33 9.95 5.66 14.9 6 20 C5.34 19.67 4.68 19.34 4 19 C3.40576172 17.14233398 3.40576172 17.14233398 2.9296875 14.74609375 C2.75566406 13.89208984 2.58164063 13.03808594 2.40234375 12.15820312 C2.22832031 11.26037109 2.05429688 10.36253906 1.875 9.4375 C1.69324219 8.53580078 1.51148438 7.63410156 1.32421875 6.70507812 C0.87513301 4.47146748 0.43410596 2.23656192 0 0 Z " fill="#F0ECDF" transform="translate(161,112)"/>
<path d="M0 0 C0.33 0.99 0.66 1.98 1 3 C2.11375 3.1546875 2.11375 3.1546875 3.25 3.3125 C6.19095263 4.04773816 7.66097609 5.13577795 10 7 C7.08234109 7.10806144 4.16868875 7.18732877 1.25 7.25 C0.425 7.28351563 -0.4 7.31703125 -1.25 7.3515625 C-7.42297754 7.45112665 -7.42297754 7.45112665 -10.578125 4.984375 C-11.04734375 4.32953125 -11.5165625 3.6746875 -12 3 C-10.95199219 3.01740234 -10.95199219 3.01740234 -9.8828125 3.03515625 C-8.97273438 3.04417969 -8.06265625 3.05320313 -7.125 3.0625 C-5.76761719 3.07990234 -5.76761719 3.07990234 -4.3828125 3.09765625 C-1.9831415 3.16249257 -1.9831415 3.16249257 0 2 C0 1.34 0 0.68 0 0 Z " fill="#232834" transform="translate(114,164)"/>
<path d="M0 0 C0.66 0 1.32 0 2 0 C1.01 5.28 0.02 10.56 -1 16 C-1.33 16 -1.66 16 -2 16 C-4.14285714 8.57142857 -4.14285714 8.57142857 -5 5 C-6.98 5 -8.96 5 -11 5 C-11 4.01 -11 3.02 -11 2 C-7.37 2 -3.74 2 0 2 C0 1.34 0 0.68 0 0 Z " fill="#ECE8E1" transform="translate(109,112)"/>
<path d="M0 0 C9.9 0 19.8 0 30 0 C30 0.33 30 0.66 30 1 C22.08 1 14.16 1 6 1 C5.67 1.66 5.34 2.32 5 3 C4.67 3.53625 4.34 4.0725 4 4.625 C2.56168111 8.04100736 2.36844158 11.31558419 2 15 C1.34 15 0.68 15 0 15 C0 10.05 0 5.1 0 0 Z " fill="#372829" transform="translate(114,125)"/>
<path d="M0 0 C1.59521484 0.16048828 1.59521484 0.16048828 3.22265625 0.32421875 C4.28355469 0.42347656 5.34445313 0.52273437 6.4375 0.625 C9.28515625 1.01171875 9.28515625 1.01171875 12.28515625 2.01171875 C11.95515625 3.00171875 11.62515625 3.99171875 11.28515625 5.01171875 C6.66515625 5.01171875 2.04515625 5.01171875 -2.71484375 5.01171875 C-3.04484375 5.67171875 -3.37484375 6.33171875 -3.71484375 7.01171875 C-3.05484375 7.34171875 -2.39484375 7.67171875 -1.71484375 8.01171875 C-2.70484375 8.01171875 -3.69484375 8.01171875 -4.71484375 8.01171875 C-4.83984375 5.13671875 -4.83984375 5.13671875 -4.71484375 2.01171875 C-2.71484375 0.01171875 -2.71484375 0.01171875 0 0 Z " fill="#F6F9FD" transform="translate(151.71484375,73.98828125)"/>
<path d="M0 0 C1.46539097 3.90123953 0.52152418 6.91103337 -0.4375 10.875 C-2.5087392 18.51632096 -2.5087392 18.51632096 -1 26 C-0.01 26.33 0.98 26.66 2 27 C1.67 28.65 1.34 30.3 1 32 C-0.32 31.34 -1.64 30.68 -3 30 C-3 29.01 -3 28.02 -3 27 C-3.66 26.67 -4.32 26.34 -5 26 C-5.22048313 20.56615762 -4.47384863 15.98517555 -3.0625 10.75 C-2.88009766 10.04359375 -2.69769531 9.3371875 -2.50976562 8.609375 C-1.75373847 5.70623071 -0.94887191 2.84661573 0 0 Z " fill="#D7A745" transform="translate(112,109)"/>
<path d="M0 0 C6.27 0 12.54 0 19 0 C19 0.66 19 1.32 19 2 C13.12116651 4.61281488 7.29268272 4.18328202 1 4 C0.67 2.68 0.34 1.36 0 0 Z " fill="#9AB2DD" transform="translate(118,68)"/>
<path d="M0 0 C-0.1875 2.3125 -0.1875 2.3125 -1 5 C-5.05025623 8.20393403 -8.24835391 8.3294854 -13.3125 8.1875 C-14.56675781 8.16042969 -15.82101563 8.13335937 -17.11328125 8.10546875 C-18.06589844 8.07066406 -19.01851562 8.03585938 -20 8 C-20 7.67 -20 7.34 -20 7 C-19.05640625 6.74476563 -19.05640625 6.74476563 -18.09375 6.484375 C-12.6624481 4.94659675 -5.31299879 0 0 0 Z " fill="#232E3D" transform="translate(172,163)"/>
<path d="M0 0 C0.495 0.165 0.99 0.33 1.5 0.5 C5.03444089 1.20688818 8.39690701 1.06005155 12 1 C9.03312999 2.64826111 6.34373475 3.44271087 3 4 C3.495 4.7425 3.495 4.7425 4 5.5 C5.43636358 9.09090894 5.12851462 12.14456127 5 16 C3.35 16.33 1.7 16.66 0 17 C0.66 16.67 1.32 16.34 2 16 C2.50423019 10.70558305 1.18923033 8.18586481 -2 4 C-1.34 3.67 -0.68 3.34 0 3 C0 2.01 0 1.02 0 0 Z " fill="#EFC7B6" transform="translate(128,82)"/>
<path d="M0 0 C0 1.32 0 2.64 0 4 C-2.95857409 4.05379226 -5.91617721 4.09357093 -8.875 4.125 C-10.13763672 4.15013672 -10.13763672 4.15013672 -11.42578125 4.17578125 C-12.23144531 4.18222656 -13.03710938 4.18867187 -13.8671875 4.1953125 C-14.61081543 4.20578613 -15.35444336 4.21625977 -16.12060547 4.22705078 C-18 4 -18 4 -20 2 C-13.4309667 0.08403195 -6.78291372 -0.12112346 0 0 Z " fill="#F9F9FC" transform="translate(104,117)"/>
<path d="M0 0 C0.042721 1.66611905 0.04063832 3.33382885 0 5 C-1 6 -1 6 -3.77563477 6.11352539 C-4.98533936 6.10828857 -6.19504395 6.10305176 -7.44140625 6.09765625 C-8.74658203 6.09443359 -10.05175781 6.09121094 -11.39648438 6.08789062 C-12.7851569 6.07953401 -14.17382877 6.07106905 -15.5625 6.0625 C-16.95507656 6.05748666 -18.34765481 6.05292347 -19.74023438 6.04882812 C-23.1601987 6.03699434 -26.58007844 6.0205088 -30 6 C-30 5.67 -30 5.34 -30 5 C-28.91730835 4.92483154 -28.91730835 4.92483154 -27.81274414 4.84814453 C-24.56187511 4.61693201 -21.31226934 4.37116681 -18.0625 4.125 C-16.92619141 4.04636719 -15.78988281 3.96773437 -14.61914062 3.88671875 C-13.53955078 3.80292969 -12.45996094 3.71914062 -11.34765625 3.6328125 C-10.34742432 3.55949707 -9.34719238 3.48618164 -8.31665039 3.41064453 C-7.16990845 3.20737549 -7.16990845 3.20737549 -6 3 C-5.67 2.34 -5.34 1.68 -5 1 C-2 0 -2 0 0 0 Z " fill="#232F4A" transform="translate(158,144)"/>
<path d="M0 0 C4.95 0 9.9 0 15 0 C15 1.32 15 2.64 15 4 C10.05 4 5.1 4 0 4 C0 2.68 0 1.36 0 0 Z " fill="#A2AFDF" transform="translate(85,89)"/>
<path d="M0 0 C6.6 0 13.2 0 20 0 C20 0.99 20 1.98 20 3 C13.4 3 6.8 3 0 3 C0 2.01 0 1.02 0 0 Z " fill="#96A8DD" transform="translate(92,68)"/>
<path d="M0 0 C2.97 0.99 5.94 1.98 9 3 C9 3.33 9 3.66 9 4 C7.35 4 5.7 4 4 4 C4.33 5.051875 4.66 6.10375 5 7.1875 C5.83966782 10.38873357 6.19750904 12.7411008 6 16 C4.83705564 13.75717873 3.96412931 11.84934309 3.375 9.375 C2.25331012 6.87362683 2.25331012 6.87362683 0.09375 6.23828125 C-1.91795636 5.7388964 -3.95910902 5.36209356 -6 5 C-6 4.34 -6 3.68 -6 3 C-4.35 3 -2.7 3 -1 3 C-0.67 2.01 -0.34 1.02 0 0 Z " fill="#F7EFD7" transform="translate(155,96)"/>
<path d="M0 0 C0.33 0 0.66 0 1 0 C0.67 2.31 0.34 4.62 0 7 C2.93443402 6.73343428 2.93443402 6.73343428 6 6 C6.66 5.01 7.32 4.02 8 3 C8 4.32 8 5.64 8 7 C9.65 7 11.3 7 13 7 C12.01 7.495 12.01 7.495 11 8 C11 8.66 11 9.32 11 10 C6.38 10 1.76 10 -3 10 C-2.01 6.7 -1.02 3.4 0 0 Z " fill="#F3F9FD" transform="translate(98,104)"/>
<path d="M0 0 C5.61 0 11.22 0 17 0 C17 0.99 17 1.98 17 3 C11.39 3 5.78 3 0 3 C0 2.01 0 1.02 0 0 Z " fill="#8CA4CF" transform="translate(71,61)"/>
<path d="M0 0 C0.90492187 0.02320313 1.80984375 0.04640625 2.7421875 0.0703125 C4.10730469 0.09738281 4.10730469 0.09738281 5.5 0.125 C6.19867188 0.14820313 6.89734375 0.17140625 7.6171875 0.1953125 C6.6271875 0.5253125 5.6371875 0.8553125 4.6171875 1.1953125 C4.6171875 1.8553125 4.6171875 2.5153125 4.6171875 3.1953125 C3.6271875 3.1953125 2.6371875 3.1953125 1.6171875 3.1953125 C0.9571875 4.8453125 0.2971875 6.4953125 -0.3828125 8.1953125 C-1.3728125 8.1953125 -2.3628125 8.1953125 -3.3828125 8.1953125 C-4.0078125 5.3203125 -4.0078125 5.3203125 -4.3828125 2.1953125 C-2.3828125 0.1953125 -2.3828125 0.1953125 0 0 Z " fill="#454C51" transform="translate(104.3828125,158.8046875)"/>
<path d="M0 0 C1.98 0.66 3.96 1.32 6 2 C6.66 1.34 7.32 0.68 8 0 C8.125 2.375 8.125 2.375 8 5 C6 7 6 7 3.8359375 7.1953125 C2.61777344 7.16050781 2.61777344 7.16050781 1.375 7.125 C0.55773437 7.10695312 -0.25953125 7.08890625 -1.1015625 7.0703125 C-1.72804687 7.04710937 -2.35453125 7.02390625 -3 7 C-2.67 5.68 -2.34 4.36 -2 3 C-1.34 3 -0.68 3 0 3 C0 2.01 0 1.02 0 0 Z " fill="#474749" transform="translate(135,134)"/>
<path d="M0 0 C1.65 0 3.3 0 5 0 C5.33 0.99 5.66 1.98 6 3 C5.01 3 4.02 3 3 3 C3 3.99 3 4.98 3 6 C2.34 6 1.68 6 1 6 C0.67 7.32 0.34 8.64 0 10 C-1.65 10 -3.3 10 -5 10 C-4.67 9.01 -4.34 8.02 -4 7 C-3.34 7 -2.68 7 -2 7 C-1.34 4.69 -0.68 2.38 0 0 Z " fill="#FABD0B" transform="translate(151,111)"/>
<path d="M0 0 C5.28 0 10.56 0 16 0 C16 0.66 16 1.32 16 2 C10.79080454 4.21390807 7.43151674 3.99577807 2 3 C1.34 2.67 0.68 2.34 0 2 C0 1.34 0 0.68 0 0 Z " fill="#4C62A3" transform="translate(128,150)"/>
<path d="M0 0 C4.95 0 9.9 0 15 0 C15 0.99 15 1.98 15 3 C12.70954632 3.22127098 10.41755236 3.4266504 8.125 3.625 C6.21074219 3.79902344 6.21074219 3.79902344 4.2578125 3.9765625 C3.18273437 3.98429688 2.10765625 3.99203125 1 4 C0.34 3.34 -0.32 2.68 -1 2 C-0.67 1.34 -0.34 0.68 0 0 Z " fill="#93ABD7" transform="translate(180,132)"/>
<path d="M0 0 C0.33 0 0.66 0 1 0 C1.33 2.31 1.66 4.62 2 7 C4.64 7.33 7.28 7.66 10 8 C10 8.33 10 8.66 10 9 C8.54176788 9.0270043 7.08339325 9.04639787 5.625 9.0625 C4.81289062 9.07410156 4.00078125 9.08570312 3.1640625 9.09765625 C1 9 1 9 -1 8 C-1 7.34 -1 6.68 -1 6 C-2.98 6 -4.96 6 -7 6 C-7 4.68 -7 3.36 -7 2 C-6.01 1.67 -5.02 1.34 -4 1 C-3.67 1.99 -3.34 2.98 -3 4 C-2.34 4 -1.68 4 -1 4 C-0.67 2.68 -0.34 1.36 0 0 Z " fill="#EDF7FC" transform="translate(86,94)"/>
<path d="M0 0 C0 0.99 0 1.98 0 3 C-4.95 3 -9.9 3 -15 3 C-15 2.01 -15 1.02 -15 0 C-13.06325815 -0.19517554 -11.12555991 -0.38087873 -9.1875 -0.5625 C-8.10855469 -0.66691406 -7.02960938 -0.77132812 -5.91796875 -0.87890625 C-3 -1 -3 -1 0 0 Z " fill="#C6D2E8" transform="translate(85,139)"/>
<path d="M0 0 C0.91007813 0.00902344 1.82015625 0.01804687 2.7578125 0.02734375 C3.45648438 0.03894531 4.15515625 0.05054687 4.875 0.0625 C4.875 1.3825 4.875 2.7025 4.875 4.0625 C0.915 4.0625 -3.045 4.0625 -7.125 4.0625 C-7.125 3.0725 -7.125 2.0825 -7.125 1.0625 C-4.60024538 -0.19987731 -2.81299534 -0.03606404 0 0 Z " fill="#C5D0F4" transform="translate(155.125,81.9375)"/>
<path d="M0 0 C1.32 0 2.64 0 4 0 C4 0.66 4 1.32 4 2 C4.99 2 5.98 2 7 2 C7.33 1.34 7.66 0.68 8 0 C8 0.99 8 1.98 8 3 C9.65 3 11.3 3 13 3 C11.68 5.64 10.36 8.28 9 11 C8.34 9.68 7.68 8.36 7 7 C6.34 6.34 5.68 5.68 5 5 C5.33 4.67 5.66 4.34 6 4 C3.03 3.505 3.03 3.505 0 3 C0 2.01 0 1.02 0 0 Z " fill="#DDEDFC" transform="translate(77,132)"/>
<path d="M0 0 C4.95 0 9.9 0 15 0 C15 0.99 15 1.98 15 3 C10.05 3 5.1 3 0 3 C0 2.01 0 1.02 0 0 Z " fill="#98A8D1" transform="translate(174,111)"/>
<path d="M0 0 C0.66 1.32 1.32 2.64 2 4 C1.34 4 0.68 4 0 4 C0 4.66 0 5.32 0 6 C-3.3 6 -6.6 6 -10 6 C-10 4.68 -10 3.36 -10 2 C-6.7 2 -3.4 2 0 2 C0 1.34 0 0.68 0 0 Z " fill="#C8D3F0" transform="translate(124,73)"/>
<path d="M0 0 C0.33 0.66 0.66 1.32 1 2 C-2.9813783 3.3271261 -6.85045227 3.06915913 -11 3 C-11 3.99 -11 4.98 -11 6 C-13 7.6875 -13 7.6875 -15 9 C-15 8.34 -15 7.68 -15 7 C-15.66 7 -16.32 7 -17 7 C-17 6.01 -17 5.02 -17 4 C-15.10751181 3.32389577 -13.2108398 2.65949561 -11.3125 2 C-10.25675781 1.62875 -9.20101562 1.2575 -8.11328125 0.875 C-5.21637944 0.0608143 -2.98299377 -0.17709796 0 0 Z " fill="#E4BB29" transform="translate(128,100)"/>
<path d="M0 0 C3.63 0 7.26 0 11 0 C11 1.32 11 2.64 11 4 C7.37 4 3.74 4 0 4 C0 2.68 0 1.36 0 0 Z " fill="#C6D4EA" transform="translate(106,89)"/>
<path d="M0 0 C-1.25 2 -1.25 2 -3 4 C-4.32 4 -5.64 4 -7 4 C-7 4.66 -7 5.32 -7 6 C-8.98 6.66 -10.96 7.32 -13 8 C-13 6.68 -13 5.36 -13 4 C-8.38987758 1.04952165 -5.63470383 -0.5497272 0 0 Z " fill="#4F5059" transform="translate(140,70)"/>
<path d="M0 0 C1.98 0 3.96 0 6 0 C6.625 2.375 6.625 2.375 7 5 C6.34 5.66 5.68 6.32 5 7 C2.375 6.625 2.375 6.625 0 6 C0 4.02 0 2.04 0 0 Z " fill="#F7FAFE" transform="translate(89,27)"/>
<path d="M0 0 C1.66621616 0.03874921 3.33394172 0.0450286 5 0 C3.5625 2 3.5625 2 1 4 C-2.02824418 4.35442445 -4.96485939 4.23347235 -8 4 C-8 3.01 -8 2.02 -8 1 C-3.375 -1.125 -3.375 -1.125 0 0 Z " fill="#C5CCF4" transform="translate(171,170)"/>
<path d="M0 0 C1.99954746 -0.04254356 4.00041636 -0.04080783 6 0 C7 1 7 1 7.0625 3.5625 C7.041875 4.366875 7.02125 5.17125 7 6 C4.69 6 2.38 6 0 6 C0 4.02 0 2.04 0 0 Z " fill="#F5F9FE" transform="translate(72,158)"/>
<path d="M0 0 C4.62 0 9.24 0 14 0 C14 0.66 14 1.32 14 2 C11.23547967 3.38226016 8.9538637 3.09525387 5.875 3.0625 C4.77929688 3.05347656 3.68359375 3.04445313 2.5546875 3.03515625 C1.29011719 3.01775391 1.29011719 3.01775391 0 3 C0 2.01 0 1.02 0 0 Z " fill="#F4FBFE" transform="translate(182,90)"/>
<path d="M0 0 C1.65 0.33 3.3 0.66 5 1 C5 1.99 5 2.98 5 4 C5.66 4 6.32 4 7 4 C7.33 4.99 7.66 5.98 8 7 C6.1875 7.625 6.1875 7.625 4 8 C3.01 7.34 2.02 6.68 1 6 C1 5.01 1 4.02 1 3 C0.34 3 -0.32 3 -1 3 C-0.67 2.01 -0.34 1.02 0 0 Z " fill="#6783C8" transform="translate(103,137)"/>
<path d="M0 0 C0.5775 0.20625 1.155 0.4125 1.75 0.625 C1.42 1.615 1.09 2.605 0.75 3.625 C-4.74245937 5.45581979 -9.49091942 5.83068145 -15.25 5.625 C-15.25 5.295 -15.25 4.965 -15.25 4.625 C-14.64671875 4.43164062 -14.0434375 4.23828125 -13.421875 4.0390625 C-12.62265625 3.77867187 -11.8234375 3.51828125 -11 3.25 C-10.21109375 2.99476563 -9.4221875 2.73953125 -8.609375 2.4765625 C-6.23937024 1.68076741 -6.23937024 1.68076741 -4.09375 0.5 C-2.25 -0.375 -2.25 -0.375 0 0 Z " fill="#788EBD" transform="translate(159.25,165.375)"/>
<path d="M0 0 C7.92 0 15.84 0 24 0 C24 0.33 24 0.66 24 1 C22.35451172 1.05607422 22.35451172 1.05607422 20.67578125 1.11328125 C19.22132143 1.17896653 17.76689584 1.24541299 16.3125 1.3125 C15.59126953 1.33505859 14.87003906 1.35761719 14.12695312 1.38085938 C9.62901178 1.60678337 6.73878775 2.24937312 3 5 C2.01 3.35 1.02 1.7 0 0 Z " fill="#D3DFF3" transform="translate(144,71)"/>
<path d="M0 0 C0.99 0.33 1.98 0.66 3 1 C1.92173635 2.27513763 0.83714481 3.54492569 -0.25 4.8125 C-0.85328125 5.52019531 -1.4565625 6.22789062 -2.078125 6.95703125 C-3.93811214 8.9342127 -5.73103544 10.51392197 -8 12 C-8.66 12 -9.32 12 -10 12 C-9.75 10.125 -9.75 10.125 -9 8 C-7.66666667 7.33333333 -6.33333333 6.66666667 -5 6 C-3.19272102 4.09003472 -1.62380612 2.07486337 0 0 Z " fill="#83A0D8" transform="translate(148,152)"/>
<path d="M0 0 C0.66 0 1.32 0 2 0 C1.67 4.95 1.34 9.9 1 15 C1.66 15.33 2.32 15.66 3 16 C1.35 16.33 -0.3 16.66 -2 17 C-2 14.03 -2 11.06 -2 8 C-1.34 8 -0.68 8 0 8 C0 5.36 0 2.72 0 0 Z " fill="#30314A" transform="translate(116,132)"/>
<path d="M0 0 C3.96 0 7.92 0 12 0 C12.33 0.99 12.66 1.98 13 3 C8.71 3 4.42 3 0 3 C0 2.01 0 1.02 0 0 Z " fill="#C4CCED" transform="translate(77,68)"/>
<path d="M0 0 C0 0.33 0 0.66 0 1 C-1.98 1.33 -3.96 1.66 -6 2 C-3.03 2.33 -0.06 2.66 3 3 C3 3.33 3 3.66 3 4 C-1.95 4 -6.9 4 -12 4 C-12.33 3.01 -12.66 2.02 -13 1 C-8.59085217 -0.10228696 -4.51617599 -0.07654536 0 0 Z " fill="#CDD8F8" transform="translate(88,170)"/>
<path d="M0 0 C3.96 0 7.92 0 12 0 C12 0.99 12 1.98 12 3 C8.04 3 4.08 3 0 3 C0 2.01 0 1.02 0 0 Z " fill="#9EA7D7" transform="translate(85,104)"/>
<path d="M0 0 C2.97 0 5.94 0 9 0 C9 1.32 9 2.64 9 4 C6.03 4 3.06 4 0 4 C0 2.68 0 1.36 0 0 Z " fill="#C8D1F0" transform="translate(85,82)"/>
<path d="M0 0 C3.3 0.33 6.6 0.66 10 1 C10 1.66 10 2.32 10 3 C9.34 3 8.68 3 8 3 C8 3.99 8 4.98 8 6 C6.35 6 4.7 6 3 6 C3.33 4.68 3.66 3.36 4 2 C2.68 2 1.36 2 0 2 C0 1.34 0 0.68 0 0 Z " fill="#F1B622" transform="translate(144,100)"/>
<path d="M0 0 C1.67542976 0.28604898 3.34385343 0.61781233 5 1 C0.89892226 3.22141711 -4.26557671 6 -9 6 C-8.67 4.68 -8.34 3.36 -8 2 C-6.865625 1.855625 -5.73125 1.71125 -4.5625 1.5625 C-1.19222799 1.38828522 -1.19222799 1.38828522 0 0 Z " fill="#F8EBC3" transform="translate(123,97)"/>
<path d="M0 0 C3.63 0 7.26 0 11 0 C11 0.99 11 1.98 11 3 C7.04 3 3.08 3 -1 3 C-0.67 2.01 -0.34 1.02 0 0 Z " fill="#95A9D9" transform="translate(144,90)"/>
<path d="M0 0 C0.33 0 0.66 0 1 0 C1.07347656 0.95712891 1.07347656 0.95712891 1.1484375 1.93359375 C1.22320312 2.75988281 1.29796875 3.58617188 1.375 4.4375 C1.44460937 5.26121094 1.51421875 6.08492188 1.5859375 6.93359375 C1.72257812 7.61550781 1.85921875 8.29742187 2 9 C2.66 9.33 3.32 9.66 4 10 C3.67 10.66 3.34 11.32 3 12 C0.4375 12.625 0.4375 12.625 -2 13 C-2.22036864 9.14354879 -1.60355101 6.50776784 0 3 C-0.99 2.67 -1.98 2.34 -3 2 C-2.01 2 -1.02 2 0 2 C0 1.34 0 0.68 0 0 Z " fill="#EFECF5" transform="translate(124,77)"/>
<path d="M0 0 C0 1.32 0 2.64 0 4 C-3.3 3.67 -6.6 3.34 -10 3 C-9.67 2.01 -9.34 1.02 -9 0 C-5.8033 -1.37001429 -3.30096158 -0.8252404 0 0 Z " fill="#EEF4FA" transform="translate(66,32)"/>
<path d="M0 0 C2.475 0.495 2.475 0.495 5 1 C5 1.99 5 2.98 5 4 C5.66 4 6.32 4 7 4 C6.67 5.65 6.34 7.3 6 9 C3.03 8.505 3.03 8.505 0 8 C0.66 7.67 1.32 7.34 2 7 C1.34 4.69 0.68 2.38 0 0 Z " fill="#ECEFED" transform="translate(106,103)"/>
<path d="M0 0 C0 0.99 0 1.98 0 3 C0.66 3 1.32 3 2 3 C2 3.66 2 4.32 2 5 C-1.63 4.67 -5.26 4.34 -9 4 C-9 3.34 -9 2.68 -9 2 C-5.86501708 0.14223235 -3.62528568 -0.20140476 0 0 Z " fill="#E7F2FD" transform="translate(104,129)"/>
<path d="M0 0 C0 0.66 0 1.32 0 2 C3.63 2.33 7.26 2.66 11 3 C11 3.33 11 3.66 11 4 C5.72 4 0.44 4 -5 4 C-5.33 3.01 -5.66 2.02 -6 1 C-3 0 -3 0 0 0 Z " fill="#DBE7EE" transform="translate(85,100)"/>
<path d="M0 0 C2.05078125 0.03255208 4.1015625 0.06510417 6.15234375 0.09765625 C5.16234375 0.59265625 5.16234375 0.59265625 4.15234375 1.09765625 C4.15234375 1.75765625 4.15234375 2.41765625 4.15234375 3.09765625 C6.46234375 3.09765625 8.77234375 3.09765625 11.15234375 3.09765625 C11.15234375 3.42765625 11.15234375 3.75765625 11.15234375 4.09765625 C10.23710937 4.07445313 9.321875 4.05125 8.37890625 4.02734375 C7.19039062 4.00929688 6.001875 3.99125 4.77734375 3.97265625 C3.59398437 3.94945313 2.410625 3.92625 1.19140625 3.90234375 C-1.95919442 3.76899396 -1.95919442 3.76899396 -3.84765625 6.09765625 C-2.77957394 0.14691194 -2.77957394 0.14691194 0 0 Z " fill="#2C221F" transform="translate(130.84765625,77.90234375)"/>
<path d="M0 0 C6.27 0.66 12.54 1.32 19 2 C19 2.33 19 2.66 19 3 C16.22964291 3.22162857 13.45961005 3.42779249 10.6875 3.625 C9.90181641 3.68945312 9.11613281 3.75390625 8.30664062 3.8203125 C7.54931641 3.871875 6.79199219 3.9234375 6.01171875 3.9765625 C5.31522217 4.02893066 4.61872559 4.08129883 3.90112305 4.13525391 C2 4 2 4 -1 2 C-0.67 1.34 -0.34 0.68 0 0 Z " fill="#BEC9E6" transform="translate(141,68)"/>
<path d="M0 0 C2.64 0.33 5.28 0.66 8 1 C8 2.98 8 4.96 8 7 C7.01 7 6.02 7 5 7 C5 6.01 5 5.02 5 4 C2.525 3.01 2.525 3.01 0 2 C0 1.34 0 0.68 0 0 Z " fill="#2C3240" transform="translate(110,160)"/>
<path d="M0 0 C0.33 0.99 0.66 1.98 1 3 C1.99 3 2.98 3 4 3 C2.515 9.435 2.515 9.435 1 16 C-1.49310643 12.26034036 -1.0603261 10.70929359 -0.625 6.3125 C-0.51414063 5.13300781 -0.40328125 3.95351562 -0.2890625 2.73828125 C-0.19367188 1.83464844 -0.09828125 0.93101562 0 0 Z " fill="#858A9C" transform="translate(158,136)"/>
<path d="M0 0 C1.67542976 0.28604898 3.34385343 0.61781233 5 1 C5 2.65 5 4.3 5 6 C3.35 5.67 1.7 5.34 0 5 C-0.5625 3.0625 -0.5625 3.0625 -1 1 C-0.67 0.67 -0.34 0.34 0 0 Z " fill="#F3F8FD" transform="translate(193,156)"/>
<path d="M0 0 C0.66 0.33 1.32 0.66 2 1 C1.67 2.98 1.34 4.96 1 7 C-1 7 -3 7 -5 7 C-4.60196439 4.11424181 -4.20990931 3.17810487 -1.9375 1.25 C-1.298125 0.8375 -0.65875 0.425 0 0 Z " fill="#8798C5" transform="translate(167,134)"/>
<path d="M0 0 C2.875 -0.125 2.875 -0.125 6 0 C6.66 0.66 7.32 1.32 8 2 C4.48812804 4.40814077 2.27343092 5.36629408 -2 5 C-1.34 3.35 -0.68 1.7 0 0 Z " fill="#4A4A4F" transform="translate(137,71)"/>
<path d="M0 0 C4.29 0 8.58 0 13 0 C10.19609013 2.80390987 7.88358829 2.66520791 4 3 C1.5625 2.5625 1.5625 2.5625 0 2 C0 1.34 0 0.68 0 0 Z " fill="#7C92BA" transform="translate(144,150)"/>
<path d="M0 0 C3.3 0 6.6 0 10 0 C10.33 0.66 10.66 1.32 11 2 C9.35 2 7.7 2 6 2 C5.67 2.66 5.34 3.32 5 4 C3.35 3.67 1.7 3.34 0 3 C0 2.01 0 1.02 0 0 Z " fill="#97A8D5" transform="translate(85,132)"/>
<path d="M0 0 C3.63 0.66 7.26 1.32 11 2 C11 2.66 11 3.32 11 4 C9.54176788 4.0270043 8.08339325 4.04639787 6.625 4.0625 C5.81289062 4.07410156 5.00078125 4.08570312 4.1640625 4.09765625 C2 4 2 4 0 3 C0 2.01 0 1.02 0 0 Z " fill="#F5B92B" transform="translate(128,102)"/>
<path d="M0 0 C0 0.66 0 1.32 0 2 C-4.455 2.495 -4.455 2.495 -9 3 C-9.33 2.01 -9.66 1.02 -10 0 C-6.30581799 -1.231394 -3.7943739 -0.64432764 0 0 Z " fill="#F9FAF8" transform="translate(119,97)"/>
<path d="M0 0 C0.66 0 1.32 0 2 0 C3.125 5.75 3.125 5.75 2 8 C1.01 8 0.02 8 -1 8 C-1.04241723 5.66705225 -1.04092937 3.33297433 -1 1 C-0.67 0.67 -0.34 0.34 0 0 Z " fill="#2F2F20" transform="translate(118,139)"/>
<path d="M0 0 C2.97 0 5.94 0 9 0 C9 0.99 9 1.98 9 3 C6.03 3 3.06 3 0 3 C0 2.01 0 1.02 0 0 Z " fill="#C1CFEA" transform="translate(97,125)"/>
<path d="M0 0 C2.97 0 5.94 0 9 0 C9 0.99 9 1.98 9 3 C6.03 3 3.06 3 0 3 C0 2.01 0 1.02 0 0 Z " fill="#8FA5D3" transform="translate(85,125)"/>
<path d="M0 0 C0.60546875 1.859375 0.60546875 1.859375 1 4 C-0.6875 6.25 -0.6875 6.25 -3 8 C-4.32 8 -5.64 8 -7 8 C-7 7.34 -7 6.68 -7 6 C-5.46875 4.4921875 -5.46875 4.4921875 -3.5 2.875 C-2.8503125 2.33617187 -2.200625 1.79734375 -1.53125 1.2421875 C-1.0259375 0.83226562 -0.520625 0.42234375 0 0 Z " fill="#4C4846" transform="translate(127,139)"/>
<path d="M0 0 C0.99 0 1.98 0 3 0 C3 3.3 3 6.6 3 10 C2.01 10 1.02 10 0 10 C0 6.7 0 3.4 0 0 Z " fill="#D0DBEC" transform="translate(61,132)"/>
<path d="M0 0 C1.98 0.66 3.96 1.32 6 2 C5.67 3.65 5.34 5.3 5 7 C3.68 6.34 2.36 5.68 1 5 C1 4.01 1 3.02 1 2 C0.34 1.67 -0.32 1.34 -1 1 C-0.67 0.67 -0.34 0.34 0 0 Z " fill="#BD9B62" transform="translate(108,134)"/>
<path d="M0 0 C1.65 0 3.3 0 5 0 C5 1.65 5 3.3 5 5 C3.35 4.67 1.7 4.34 0 4 C-0.33 4.66 -0.66 5.32 -1 6 C-0.67 4.02 -0.34 2.04 0 0 Z " fill="#59595B" transform="translate(129,135)"/>
<path d="M0 0 C2.64 0 5.28 0 8 0 C8 0.99 8 1.98 8 3 C5.69 3 3.38 3 1 3 C0.67 2.01 0.34 1.02 0 0 Z " fill="#C0CEE4" transform="translate(168,125)"/>
<path d="M0 0 C0.33 0 0.66 0 1 0 C1 1.98 1 3.96 1 6 C1.99 6.33 2.98 6.66 4 7 C3.34 7 2.68 7 2 7 C1.67 8.32 1.34 9.64 1 11 C0.01 11 -0.98 11 -2 11 C-1.34 7.37 -0.68 3.74 0 0 Z " fill="#C2B4BD" transform="translate(146,76)"/>
<path d="M0 0 C0.78375 0.04125 1.5675 0.0825 2.375 0.125 C0.44923885 2.56429746 -1.42590595 4.92590595 -3.625 7.125 C-4.25 4.75 -4.25 4.75 -4.625 2.125 C-2.625 0.125 -2.625 0.125 0 0 Z " fill="#253140" transform="translate(104.625,158.875)"/>
<path d="M0 0 C2.4294516 3.6441774 2.16179575 5.71241272 2 10 C0.5 8.875 0.5 8.875 -1 7 C-1.25 3.875 -1.25 3.875 -1 1 C-0.67 0.67 -0.34 0.34 0 0 Z " fill="#EDA50F" transform="translate(110,126)"/>
<path d="M0 0 C-1.485 1.98 -1.485 1.98 -3 4 C-5.97 3.505 -5.97 3.505 -9 3 C-6.38997624 -0.48003168 -4.1689578 -0.27793052 0 0 Z " fill="#475367" transform="translate(140,70)"/>
<path d="M0 0 C0.66 0.33 1.32 0.66 2 1 C1.34 2.32 0.68 3.64 0 5 C-1.65 5 -3.3 5 -5 5 C-5 4.01 -5 3.02 -5 2 C-2.625 0.9375 -2.625 0.9375 0 0 Z " fill="#BBC6D7" transform="translate(168,169)"/>
<path d="M0 0 C0 0.66 0 1.32 0 2 C-3.46153846 5 -3.46153846 5 -6 5 C-6.33 6.32 -6.66 7.64 -7 9 C-7.66 7.35 -8.32 5.7 -9 4 C-2.25 0 -2.25 0 0 0 Z " fill="#768EB7" transform="translate(179,156)"/>
<path d="M0 0 C1.65 0 3.3 0 5 0 C2.6875 2.5 2.6875 2.5 0 5 C-0.99 5 -1.98 5 -3 5 C-2.67 4.01 -2.34 3.02 -2 2 C-1.34 2 -0.68 2 0 2 C0 1.34 0 0.68 0 0 Z " fill="#839DC9" transform="translate(179,152)"/>
<path d="M0 0 C1.32 0.33 2.64 0.66 4 1 C4.33 2.65 4.66 4.3 5 6 C3.35 5.67 1.7 5.34 0 5 C0 3.33333333 0 1.66666667 0 0 Z " fill="#768CBA" transform="translate(181,137)"/>
<path d="M0 0 C1.98 0 3.96 0 6 0 C6.33 0.66 6.66 1.32 7 2 C6.34 2 5.68 2 5 2 C5 3.65 5 5.3 5 7 C1.125 2.25 1.125 2.25 0 0 Z " fill="#D6E8FC" transform="translate(182,135)"/>
<path d="M0 0 C1.32 0 2.64 0 4 0 C4.33 0.99 4.66 1.98 5 3 C4.01 3 3.02 3 2 3 C2 3.99 2 4.98 2 6 C1.01 6.33 0.02 6.66 -1 7 C-0.67 4.69 -0.34 2.38 0 0 Z " fill="#FAB420" transform="translate(152,111)"/>
<path d="M0 0 C2.31 0 4.62 0 7 0 C7 0.99 7 1.98 7 3 C4.69 3 2.38 3 0 3 C0 2.01 0 1.02 0 0 Z " fill="#9AA8CF" transform="translate(169,97)"/>
<path d="M0 0 C2.475 0.495 2.475 0.495 5 1 C5 1.99 5 2.98 5 4 C3.68 4.33 2.36 4.66 1 5 C0.67 3.35 0.34 1.7 0 0 Z " fill="#F0F7FE" transform="translate(99,28)"/>
<path d="M0 0 C1.65 0.33 3.3 0.66 5 1 C4.67 1.66 4.34 2.32 4 3 C3.01 3.33 2.02 3.66 1 4 C1 4.66 1 5.32 1 6 C0.34 6 -0.32 6 -1 6 C-1 5.34 -1 4.68 -1 4 C-1.66 3.67 -2.32 3.34 -3 3 C-2.01 2.67 -1.02 2.34 0 2 C0 1.34 0 0.68 0 0 Z " fill="#6E8AC3" transform="translate(91,134)"/>
<path d="M0 0 C-3.44450737 2.29633824 -5.93812283 2.54016485 -10 3 C-10 2.34 -10 1.68 -10 1 C-6.42181037 -1.33958553 -4.07775191 -0.9267618 0 0 Z " fill="#FBC193" transform="translate(144,101)"/>
<path d="M0 0 C1.32 0 2.64 0 4 0 C4 1.65 4 3.3 4 5 C2.68 5 1.36 5 0 5 C0 3.35 0 1.7 0 0 Z " fill="#F2FAFF" transform="translate(175,32)"/>
<path d="M0 0 C1.7074998 1.28062485 3.37373596 2.61767557 5 4 C5 4.66 5 5.32 5 6 C2.5625 5.625 2.5625 5.625 0 5 C-0.33 4.34 -0.66 3.68 -1 3 C-0.67 2.01 -0.34 1.02 0 0 Z " fill="#BEC7E2" transform="translate(101,167)"/>
<path d="M0 0 C0 1.65 0 3.3 0 5 C-1.32 5.33 -2.64 5.66 -4 6 C-4 4.35 -4 2.7 -4 1 C-1 0 -1 0 0 0 Z " fill="#252938" transform="translate(158,139)"/>
<path d="M0 0 C1.32 0 2.64 0 4 0 C4 0.66 4 1.32 4 2 C4.99 2 5.98 2 7 2 C7.33 1.34 7.66 0.68 8 0 C8 0.99 8 1.98 8 3 C5.36 3 2.72 3 0 3 C0 2.01 0 1.02 0 0 Z " fill="#C8D0E6" transform="translate(77,132)"/>
<path d="M0 0 C0.33 1.32 0.66 2.64 1 4 C-0.98 4 -2.96 4 -5 4 C-4.67 3.01 -4.34 2.02 -4 1 C-2 0 -2 0 0 0 Z " fill="#F99E17" transform="translate(159,115)"/>
<path d="M0 0 C1.98 0 3.96 0 6 0 C6 0.99 6 1.98 6 3 C4.02 3 2.04 3 0 3 C0 2.01 0 1.02 0 0 Z " fill="#95AAD3" transform="translate(85,111)"/>
<path d="M0 0 C-0.57344937 2.86724686 -0.8614515 3.8614515 -3 6 C-3 5.34 -3 4.68 -3 4 C-3.66 4 -4.32 4 -5 4 C-5 3.01 -5 2.02 -5 1 C-2 0 -2 0 0 0 Z " fill="#C2AB86" transform="translate(116,103)"/>
<path d="M0 0 C1.65 0 3.3 0 5 0 C5 0.99 5 1.98 5 3 C3.35 3.33 1.7 3.66 0 4 C0 2.68 0 1.36 0 0 Z " fill="#D3DAED" transform="translate(61,60)"/>
<path d="M0 0 C0.33 0 0.66 0 1 0 C1.33 2.64 1.66 5.28 2 8 C1.01 8 0.02 8 -1 8 C-1.125 2.25 -1.125 2.25 0 0 Z " fill="#7B93B7" transform="translate(119,160)"/>
<path d="M0 0 C0 1.65 0 3.3 0 5 C-2.97 4.505 -2.97 4.505 -6 4 C-5.67 3.01 -5.34 2.02 -5 1 C-2 0 -2 0 0 0 Z " fill="#31354A" transform="translate(158,144)"/>
<path d="M0 0 C2.31 0 4.62 0 7 0 C7 0.99 7 1.98 7 3 C4.69 2.67 2.38 2.34 0 2 C0 1.34 0 0.68 0 0 Z " fill="#99A5CA" transform="translate(188,132)"/>
<path d="M0 0 C2.31 0.33 4.62 0.66 7 1 C7 1.66 7 2.32 7 3 C4.69 3 2.38 3 0 3 C0 2.01 0 1.02 0 0 Z " fill="#EFF0F4" transform="translate(141,93)"/>
<path d="M0 0 C0.99 0.33 1.98 0.66 3 1 C3 2.32 3 3.64 3 5 C1.68 5 0.36 5 -1 5 C-0.67 3.35 -0.34 1.7 0 0 Z " fill="#F4FAFF" transform="translate(63,31)"/>
</svg>
